<?xml version="1.0" encoding="UTF-8"?>
<svg xmlns="http://www.w3.org/2000/svg" xmlns:xlink="http://www.w3.org/1999/xlink" width="0" height="0">
    <symbol id="icon-microwave" width="20" height="16" viewBox="0 0 20 16" fill="none">
        <path d="M18.5714 1.57141H1.42852C1.23908 1.57141 1.0574 1.64667 0.923443 1.78062C0.789488 1.91458 0.714233 2.09626 0.714233 2.2857V13.7143C0.714233 13.9037 0.789488 14.0854 0.923443 14.2193C1.0574 14.3533 1.23908 14.4286 1.42852 14.4286H18.5714C18.7608 14.4286 18.9425 14.3533 19.0765 14.2193C19.2104 14.0854 19.2857 13.9037 19.2857 13.7143V2.2857C19.2857 2.09626 19.2104 1.91458 19.0765 1.78062C18.9425 1.64667 18.7608 1.57141 18.5714 1.57141Z" stroke="#101828" stroke-width="1.4" stroke-linecap="round" stroke-linejoin="round"/>
        <path d="M15.7143 5.14281H16.4286M15.7143 7.99996H16.4286M12.1428 4.42853H4.2857C4.09626 4.42853 3.91458 4.50378 3.78062 4.63774C3.64667 4.77169 3.57141 4.95337 3.57141 5.14281V10.8571C3.57141 11.0465 3.64667 11.2282 3.78062 11.3622C3.91458 11.4961 4.09626 11.5714 4.2857 11.5714H12.1428C12.3323 11.5714 12.514 11.4961 12.6479 11.3622C12.7819 11.2282 12.8571 11.0465 12.8571 10.8571V5.14281C12.8571 4.95337 12.7819 4.77169 12.6479 4.63774C12.514 4.50378 12.3323 4.42853 12.1428 4.42853Z" stroke="#101828" stroke-width="1.4" stroke-linecap="round" stroke-linejoin="round"/>
    </symbol>

    <symbol id="icon-water" width="20" height="20" viewBox="0 0 20 20" fill="none">
        <path d="M15.625 12.5C15.625 15.952 13.452 18.125 10 18.125C6.54805 18.125 4.375 15.952 4.375 12.5C4.375 8.79571 8.40742 3.79492 9.64414 2.34844C9.68815 2.29705 9.74276 2.25579 9.80422 2.2275C9.86568 2.19922 9.93254 2.18457 10.0002 2.18457C10.0679 2.18457 10.1347 2.19922 10.1962 2.2275C10.2576 2.25579 10.3122 2.29705 10.3562 2.34844C11.5926 3.79492 15.625 8.79571 15.625 12.5Z" stroke="black" stroke-width="1.5" stroke-miterlimit="10"/>
        <path d="M13.4375 12.8125C13.4375 13.5584 13.1412 14.2738 12.6137 14.8012C12.0863 15.3287 11.3709 15.625 10.625 15.625" stroke="black" stroke-width="1.5" stroke-linecap="round" stroke-linejoin="round"/>
    </symbol>

    <symbol id="icon-gas" width="14" height="17" viewBox="0 0 14 17" fill="none">
        <path d="M12.6699 7.74467C12.44 7.46132 12.16 7.21576 11.9001 6.9702C11.2302 6.40352 10.4703 5.99739 9.83046 5.40238C8.34073 4.02345 8.01079 1.74727 8.96062 0C8.01079 0.217228 7.18094 0.708354 6.47107 1.2467C3.88155 3.2112 2.86173 6.67741 4.08151 9.6525C4.1215 9.74694 4.16149 9.84139 4.16149 9.96417C4.16149 10.172 4.01152 10.3609 3.81156 10.4364C3.5816 10.5309 3.34165 10.4742 3.15168 10.3231C3.09459 10.2785 3.04708 10.224 3.01171 10.1625C1.88191 8.81192 1.70194 6.87575 2.46181 5.32682C0.792111 6.6113 -0.117722 8.78358 0.0122545 10.8331C0.0722435 11.3053 0.132232 11.7776 0.302201 12.2498C0.442176 12.8165 0.712126 13.3832 1.01207 13.8837C2.09187 15.5177 3.96153 16.6888 5.97116 16.9249C8.11077 17.1799 10.4004 16.8116 12.0401 15.4138C13.8697 13.846 14.5096 11.3337 13.5698 9.18026L13.4398 8.9347C13.2298 8.50024 12.6699 7.74467 12.6699 7.74467ZM9.51052 13.6948C9.23057 13.9215 8.77065 14.1671 8.41072 14.2615C7.29092 14.6393 6.17113 14.1104 5.51125 13.4871C6.70103 13.2226 7.4109 12.3915 7.62086 11.5509C7.79083 10.7953 7.47089 10.172 7.34091 9.44471C7.22093 8.7458 7.24093 8.15079 7.51088 7.4991C7.70085 7.858 7.90081 8.2169 8.14077 8.50024C8.91063 9.44471 10.1204 9.86028 10.3804 11.1448C10.4203 11.277 10.4403 11.4092 10.4403 11.5509C10.4703 12.3254 10.1104 13.1754 9.51052 13.6948Z" fill="#101828"/>
    </symbol>

    <symbol id="icon-freezer" width="20" height="20" viewBox="0 0 20 20" fill="none">
        <path d="M14.625 1.875H5.37915C4.68879 1.875 4.12915 2.43464 4.12915 3.125V15.8667C4.12915 16.557 4.68879 17.1167 5.37915 17.1167H14.625C15.3153 17.1167 15.875 16.557 15.875 15.8667V3.125C15.875 2.43464 15.3153 1.875 14.625 1.875Z" stroke="#101828" stroke-width="1.3" stroke-linecap="round" stroke-linejoin="round"/>
        <path d="M4.12915 8.20416H15.8708M6.44582 6.60416V4.07916M6.44582 12.15V9.625M5.26665 17.1167V17.5542C5.26665 17.7048 5.32622 17.8494 5.43237 17.9563C5.53852 18.0633 5.68265 18.1239 5.83332 18.125H6.86248C7.01388 18.125 7.15907 18.0649 7.26612 17.9578C7.37318 17.8507 7.43332 17.7056 7.43332 17.5542V17.1167M12.5625 17.1167V17.5542C12.5625 17.7056 12.6226 17.8507 12.7297 17.9578C12.8367 18.0649 12.9819 18.125 13.1333 18.125H14.1667C14.318 18.125 14.4632 18.0649 14.5703 17.9578C14.6773 17.8507 14.7375 17.7056 14.7375 17.5542V17.1167" stroke="#101828" stroke-width="1.3" stroke-linecap="round" stroke-linejoin="round"/>
    </symbol>

    <symbol id="icon-shower" width="16" height="16" viewBox="0 0 16 16" fill="none">
        <path d="M1.33337 1.33331L3.41671 3.41665M9.25004 3.41665C8.47383 2.65596 7.42879 2.23234 6.342 2.23783C5.25522 2.24332 4.21451 2.67748 3.44602 3.44596C2.67754 4.21444 2.24338 5.25516 2.23789 6.34194C2.2324 7.42873 2.65603 8.47377 3.41671 9.24998M10.5 2.16665L2.16671 10.5M9.66671 12.1666V12.175M6.33337 11.3333V11.3416M8.83337 8.83331V8.84165M11.3334 6.33331V6.34165M7.16671 14.6666V14.675M12.1667 9.66665V9.67498M14.6667 7.16665V7.17498" stroke="#101828" stroke-width="1.6" stroke-linecap="round" stroke-linejoin="round"/>
    </symbol>

    <symbol id="icon-toilet" width="20" height="20" viewBox="0 0 20 20" fill="none">
        <path d="M15 2.5C16.2116 2.5 17.0433 3.52917 17.525 4.57083C18.0008 5.60417 18.29 6.9525 18.3291 8.41167L18.3333 8.75V16.6667C18.3334 16.779 18.3108 16.8901 18.2668 16.9935C18.2229 17.0968 18.1585 17.1902 18.0776 17.268C17.9966 17.3459 17.9008 17.4065 17.7958 17.4464C17.6908 17.4863 17.5788 17.5045 17.4666 17.5L17.3633 17.4883L15 17.095L12.6366 17.4883C12.5366 17.505 12.4344 17.5033 12.335 17.4833L12.2366 17.4575L9.99996 16.7117L7.76329 17.4575C7.64597 17.4966 7.52143 17.5091 7.39869 17.4941C7.27594 17.479 7.15808 17.4369 7.05365 17.3707C6.94922 17.3045 6.86083 17.2158 6.7949 17.1112C6.72897 17.0066 6.68714 16.8886 6.67246 16.7658L6.66663 16.6667V14.2275C6.22413 14.6858 5.66996 15 4.99996 15C3.78829 15 2.95663 13.9708 2.47496 12.9292C1.96329 11.8167 1.66663 10.3383 1.66663 8.75C1.66663 7.16167 1.96246 5.68333 2.47496 4.57083C2.93413 3.57583 3.71329 2.59333 4.83746 2.50667L4.99996 2.5H15ZM15 4.16667H7.31829C7.39329 4.3 7.46163 4.435 7.52413 4.57083C8.03746 5.68333 8.33329 7.16167 8.33329 8.75V15.5108L9.73663 15.0425C9.90757 14.9856 10.0924 14.9856 10.2633 15.0425L12.5675 15.8108L14.8633 15.4275C14.9533 15.4125 15.0466 15.4125 15.1366 15.4275L16.6666 15.6833V8.75C16.6666 7.34667 16.4025 6.11667 16.0108 5.26917C15.5875 4.35 15.1691 4.16667 15 4.16667ZM4.99996 4.16667C4.83079 4.16667 4.41246 4.35 3.98913 5.26917C3.59746 6.11667 3.33329 7.34667 3.33329 8.75C3.33329 10.1533 3.59746 11.3833 3.98913 12.2308C4.41246 13.15 4.83079 13.3333 4.99996 13.3333C5.16913 13.3333 5.58746 13.15 6.01079 12.2308C6.40246 11.3833 6.66663 10.1533 6.66663 8.75C6.66663 7.34667 6.40246 6.11667 6.01079 5.26917C5.58746 4.35 5.16913 4.16667 4.99996 4.16667ZM4.99996 7.08333C5.45996 7.08333 5.83329 7.82917 5.83329 8.75C5.83329 9.67083 5.45996 10.4167 4.99996 10.4167C4.53996 10.4167 4.16663 9.67083 4.16663 8.75C4.16663 7.82917 4.53996 7.08333 4.99996 7.08333Z" fill="#101828"/>
    </symbol>

    <symbol id="icon-hob" width="20" height="15" viewBox="0 0 20 15" fill="none">
        <path d="M7.49996 1.16669H17.5C17.721 1.16669 17.9329 1.25448 18.0892 1.41076C18.2455 1.56705 18.3333 1.77901 18.3333 2.00002V12.8334C18.3333 13.0544 18.2455 13.2663 18.0892 13.4226C17.9329 13.5789 17.721 13.6667 17.5 13.6667H7.49996M7.49996 1.16669H2.49996C2.27895 1.16669 2.06698 1.25448 1.9107 1.41076C1.75442 1.56705 1.66663 1.77901 1.66663 2.00002V12.8334C1.66663 13.0544 1.75442 13.2663 1.9107 13.4226C2.06698 13.5789 2.27895 13.6667 2.49996 13.6667H7.49996M7.49996 1.16669V13.6667" stroke="#101828" stroke-width="1.5"/>
        <path d="M4.58325 4.08335V5.75002M15.4166 3.66669L10.4166 10.75" stroke="#101828" stroke-width="1.5" stroke-linecap="round" stroke-linejoin="round"/>
        <path d="M5.41667 8.25002C5.41667 7.78978 5.04357 7.41669 4.58333 7.41669C4.1231 7.41669 3.75 7.78978 3.75 8.25002C3.75 8.71026 4.1231 9.08335 4.58333 9.08335C5.04357 9.08335 5.41667 8.71026 5.41667 8.25002Z" fill="#101828"/>
        <path d="M5.41667 10.75C5.41667 10.2898 5.04357 9.91669 4.58333 9.91669C4.1231 9.91669 3.75 10.2898 3.75 10.75C3.75 11.2103 4.1231 11.5834 4.58333 11.5834C5.04357 11.5834 5.41667 11.2103 5.41667 10.75Z" fill="#101828"/>
    </symbol>

    <symbol id="icon-radio" width="18" height="18" viewBox="0 0 18 18" fill="none">
        <path d="M0.666626 10.6667C0.666626 7.52417 0.666626 5.9525 1.64329 4.97667C2.61913 4 4.19079 4 7.33329 4H10.6666C13.8091 4 15.3808 4 16.3566 4.97667C17.3333 5.9525 17.3333 7.52417 17.3333 10.6667C17.3333 13.8092 17.3333 15.3808 16.3566 16.3567C15.3808 17.3333 13.8091 17.3333 10.6666 17.3333H7.33329C4.19079 17.3333 2.61913 17.3333 1.64329 16.3567C0.666626 15.3808 0.666626 13.8092 0.666626 10.6667Z" stroke="#101828" stroke-width="1.3"/>
        <path d="M3.16663 8.16667C3.16663 7.72464 3.34222 7.30072 3.65478 6.98816C3.96734 6.6756 4.39127 6.5 4.83329 6.5H13.1666C13.6087 6.5 14.0326 6.6756 14.3451 6.98816C14.6577 7.30072 14.8333 7.72464 14.8333 8.16667C14.8333 8.60869 14.6577 9.03262 14.3451 9.34518C14.0326 9.65774 13.6087 9.83333 13.1666 9.83333H4.83329C4.39127 9.83333 3.96734 9.65774 3.65478 9.34518C3.34222 9.03262 3.16663 8.60869 3.16663 8.16667ZM6.49996 13.1667C6.49996 13.4982 6.36826 13.8161 6.13384 14.0505C5.89942 14.285 5.58148 14.4167 5.24996 14.4167C4.91844 14.4167 4.6005 14.285 4.36608 14.0505C4.13166 13.8161 3.99996 13.4982 3.99996 13.1667C3.99996 12.8351 4.13166 12.5172 4.36608 12.2828C4.6005 12.0484 4.91844 11.9167 5.24996 11.9167C5.58148 11.9167 5.89942 12.0484 6.13384 12.2828C6.36826 12.5172 6.49996 12.8351 6.49996 13.1667Z" stroke="#101828" stroke-width="1.3"/>
        <path d="M11.5 8.58335V9.83335M9.83329 13.1667H14M4.41663 4.00002L11.5 0.666687" stroke="#101828" stroke-width="1.3" stroke-linecap="round"/>
    </symbol>

    <symbol id="icon-cd" width="18" height="18" viewBox="0 0 18 18" fill="none">
        <path d="M9 16.5C13.1421 16.5 16.5 13.1421 16.5 9C16.5 4.85786 13.1421 1.5 9 1.5C4.85786 1.5 1.5 4.85786 1.5 9C1.5 13.1421 4.85786 16.5 9 16.5Z" stroke="#101828" stroke-width="1.5"/>
        <path d="M4.41663 9.00002C4.41663 6.46877 6.46871 4.41669 8.99996 4.41669" stroke="#101828" stroke-width="1.5" stroke-linecap="round"/>
        <path d="M8.99996 11.0834C10.1506 11.0834 11.0833 10.1506 11.0833 9.00002C11.0833 7.84943 10.1506 6.91669 8.99996 6.91669C7.84937 6.91669 6.91663 7.84943 6.91663 9.00002C6.91663 10.1506 7.84937 11.0834 8.99996 11.0834Z" stroke="#101828" stroke-width="1.5"/>
    </symbol>

    <symbol id="icon-air-conditioner" width="20" height="20" viewBox="0 0 20 20" fill="none">
        <path d="M17.8571 0.714294H2.1428C1.76392 0.714294 1.40056 0.864804 1.13265 1.13271C0.864743 1.40062 0.714233 1.76399 0.714233 2.14287V9.28572C0.714233 9.6646 0.864743 10.028 1.13265 10.2959C1.40056 10.5638 1.76392 10.7143 2.1428 10.7143H17.8571C18.236 10.7143 18.5993 10.5638 18.8672 10.2959C19.1352 10.028 19.2857 9.6646 19.2857 9.28572V2.14287C19.2857 1.76399 19.1352 1.40062 18.8672 1.13271C18.5993 0.864804 18.236 0.714294 17.8571 0.714294Z" stroke="#101828" stroke-width="1.5" stroke-linecap="round" stroke-linejoin="round"/>
        <path d="M15.7143 10.7143V7.85716C15.7143 7.47828 15.5638 7.11492 15.2958 6.84701C15.0279 6.5791 14.6646 6.42859 14.2857 6.42859H5.71427C5.33539 6.42859 4.97202 6.5791 4.70412 6.84701C4.43621 7.11492 4.2857 7.47828 4.2857 7.85716V10.7143M3.57141 17.8572H3.71427C4.2447 17.8572 4.75341 17.6464 5.12848 17.2714C5.50355 16.8963 5.71427 16.3876 5.71427 15.8572V14.2857M16.4286 17.8572H16.2857C15.7553 17.8572 15.2466 17.6464 14.8715 17.2714C14.4964 16.8963 14.2857 16.3876 14.2857 15.8572V14.2857M9.99998 19.2857V14.2857" stroke="#101828" stroke-width="1.5" stroke-linecap="round" stroke-linejoin="round"/>
    </symbol>

    <symbol id="icon-bed" width="20" height="20" viewBox="0 0 20 20" fill="none">
        <path d="M1.875 16.25V11.875C1.87696 11.2126 2.14098 10.5778 2.6094 10.1094C3.07781 9.64098 3.71256 9.37696 4.375 9.375H15.625C16.2874 9.37696 16.9222 9.64098 17.3906 10.1094C17.859 10.5778 18.123 11.2126 18.125 11.875V16.25M15 9.375H3.75V5.3125C3.75124 4.89848 3.91625 4.50177 4.20901 4.20901C4.50177 3.91625 4.89848 3.75124 5.3125 3.75H14.6875C15.1015 3.75124 15.4982 3.91625 15.791 4.20901C16.0837 4.50177 16.2488 4.89848 16.25 5.3125V9.375H15Z" stroke="#101828" stroke-width="1.4" stroke-linecap="round" stroke-linejoin="round"/>
        <path d="M1.875 16.25V15.9375C1.87572 15.6891 1.97473 15.451 2.15038 15.2754C2.32604 15.0997 2.56408 15.0007 2.8125 15H17.1875C17.4359 15.0007 17.674 15.0997 17.8496 15.2754C18.0253 15.451 18.1243 15.6891 18.125 15.9375V16.25M4.375 9.375V8.75C4.37593 8.41876 4.50792 8.10136 4.74214 7.86714C4.97636 7.63292 5.29376 7.50093 5.625 7.5H8.75C9.08124 7.50093 9.39864 7.63292 9.63286 7.86714C9.86708 8.10136 9.99907 8.41876 10 8.75M10 8.75V9.375M10 8.75C10.0009 8.41876 10.1329 8.10136 10.3671 7.86714C10.6014 7.63292 10.9188 7.50093 11.25 7.5H14.375C14.7062 7.50093 15.0236 7.63292 15.2579 7.86714C15.4921 8.10136 15.6241 8.41876 15.625 8.75V9.375" stroke="#101828" stroke-width="1.4" stroke-linecap="round" stroke-linejoin="round"/>
    </symbol>

    <symbol id="icon-kitchen" width="14" height="18" viewBox="0 0 14 18" fill="none">
        <path d="M12.8333 11.5V1.5C8.81996 5.32833 8.64746 8.4325 8.66663 11.5H12.8333ZM12.8333 11.5V16.5H12V14M3.66663 2.33333V16.5M1.16663 2.33333V4.83333C1.16663 5.49637 1.43002 6.13226 1.89886 6.6011C2.3677 7.06994 3.00358 7.33333 3.66663 7.33333C4.32967 7.33333 4.96555 7.06994 5.43439 6.6011C5.90323 6.13226 6.16663 5.49637 6.16663 4.83333V2.33333" stroke="#101828" stroke-width="1.5" stroke-linecap="round" stroke-linejoin="round"/>
    </symbol>

    <symbol id="icon-petrol" width="15" height="16" viewBox="0 0 15 16" fill="none">
        <path d="M13.475 4.025L13.4834 4.01667L10.3834 0.916667L9.50004 1.8L11.2584 3.55833C10.475 3.85833 9.91671 4.60833 9.91671 5.5C9.91671 5.77359 9.97059 6.0445 10.0753 6.29726C10.18 6.55002 10.3334 6.77968 10.5269 6.97314C10.9176 7.36384 11.4475 7.58333 12 7.58333C12.3 7.58333 12.575 7.51667 12.8334 7.40833V13.4167C12.8334 13.6377 12.7456 13.8496 12.5893 14.0059C12.433 14.1622 12.2211 14.25 12 14.25C11.779 14.25 11.5671 14.1622 11.4108 14.0059C11.2545 13.8496 11.1667 13.6377 11.1667 13.4167V9.66667C11.1667 9.22464 10.9911 8.80072 10.6786 8.48816C10.366 8.17559 9.94207 8 9.50004 8H8.66671V2.16667C8.66671 1.72464 8.49111 1.30072 8.17855 0.988155C7.86599 0.675595 7.44207 0.5 7.00004 0.5H2.00004C1.55801 0.5 1.13409 0.675595 0.821529 0.988155C0.508969 1.30072 0.333374 1.72464 0.333374 2.16667V15.5H8.66671V9.25H9.91671V13.4167C9.91671 13.9692 10.1362 14.4991 10.5269 14.8898C10.9176 15.2805 11.4475 15.5 12 15.5C12.2736 15.5 12.5445 15.4461 12.7973 15.3414C13.0501 15.2367 13.2797 15.0833 13.4732 14.8898C13.6666 14.6964 13.8201 14.4667 13.9248 14.2139C14.0295 13.9612 14.0834 13.6903 14.0834 13.4167V5.5C14.0834 4.925 13.85 4.4 13.475 4.025ZM7.00004 9.25V13.8333H2.00004V8H7.00004V9.25ZM7.00004 6.33333H2.00004V2.16667H7.00004V6.33333ZM12 6.33333C11.779 6.33333 11.5671 6.24554 11.4108 6.08926C11.2545 5.93297 11.1667 5.72101 11.1667 5.5C11.1667 5.27899 11.2545 5.06702 11.4108 4.91074C11.5671 4.75446 11.779 4.66667 12 4.66667C12.2211 4.66667 12.433 4.75446 12.5893 4.91074C12.7456 5.06702 12.8334 5.27899 12.8334 5.5C12.8334 5.72101 12.7456 5.93297 12.5893 6.08926C12.433 6.24554 12.2211 6.33333 12 6.33333Z" fill="#101828"/>
    </symbol>

    <symbol id="icon-ac" width="20" height="20" viewBox="0 0 20 20" fill="none" xmlns="http://www.w3.org/2000/svg">
        <mask id="a" fill="#fff">
            <path d="M9.69 2a4.1 4.1 0 0 0-2.573.906A3.987 3.987 0 0 0 5.71 5.212l-.072.36a.606.606 0 0 0 .256.65.63.63 0 0 0 .968-.41l.074-.357a2.763 2.763 0 0 1 1.086-1.676 2.842 2.842 0 0 1 3.748.367c.468.507.728 1.167.73 1.853a2.75 2.75 0 0 1-.824 1.958 2.836 2.836 0 0 1-1.989.812H.626a.63.63 0 0 0-.442.18.61.61 0 0 0 0 .87.63.63 0 0 0 .442.181h9.063a4.094 4.094 0 0 0 2.808-1.205A3.97 3.97 0 0 0 13.652 6a3.97 3.97 0 0 0-1.154-2.794A4.094 4.094 0 0 0 9.69 2Zm7.185 5.538a3.15 3.15 0 0 0-2.21.902 3.053 3.053 0 0 0-.915 2.175c0 .164.066.32.183.435a.63.63 0 0 0 .884 0 .61.61 0 0 0 .183-.435c0-.365.11-.722.316-1.025a1.87 1.87 0 0 1 .841-.68 1.902 1.902 0 0 1 2.044.4 1.82 1.82 0 0 1 .406 2.012 1.853 1.853 0 0 1-.69.828 1.897 1.897 0 0 1-1.042.311H.625a.63.63 0 0 0-.442.18.61.61 0 0 0 0 .871.63.63 0 0 0 .442.18h12.188c.414.001.811.164 1.103.453a1.524 1.524 0 0 1-.004 2.176 1.595 1.595 0 0 1-2.126.082 1.55 1.55 0 0 1-.538-.928l-.007-.037a.609.609 0 0 0-.248-.413.63.63 0 0 0-.983.37.608.608 0 0 0-.001.244l.006.037c.111.65.452 1.24.963 1.665a2.857 2.857 0 0 0 3.82-.151c.528-.52.826-1.224.827-1.96 0-.57-.175-1.098-.474-1.538h1.724a3.15 3.15 0 0 0 2.21-.9c.586-.578.915-1.36.915-2.177 0-.816-.33-1.598-.915-2.175a3.15 3.15 0 0 0-2.21-.902Z"/>
        </mask>
        <path fill="#101828" d="M9.69 2a4.1 4.1 0 0 0-2.573.906A3.987 3.987 0 0 0 5.71 5.212l-.072.36a.606.606 0 0 0 .256.65.63.63 0 0 0 .968-.41l.074-.357a2.763 2.763 0 0 1 1.086-1.676 2.842 2.842 0 0 1 3.748.367c.468.507.728 1.167.73 1.853a2.75 2.75 0 0 1-.824 1.958 2.836 2.836 0 0 1-1.989.812H.626a.63.63 0 0 0-.442.18.61.61 0 0 0 0 .87.63.63 0 0 0 .442.181h9.063a4.094 4.094 0 0 0 2.808-1.205A3.97 3.97 0 0 0 13.652 6a3.97 3.97 0 0 0-1.154-2.794A4.094 4.094 0 0 0 9.69 2Zm7.185 5.538a3.15 3.15 0 0 0-2.21.902 3.053 3.053 0 0 0-.915 2.175c0 .164.066.32.183.435a.63.63 0 0 0 .884 0 .61.61 0 0 0 .183-.435c0-.365.11-.722.316-1.025a1.87 1.87 0 0 1 .841-.68 1.902 1.902 0 0 1 2.044.4 1.82 1.82 0 0 1 .406 2.012 1.853 1.853 0 0 1-.69.828 1.897 1.897 0 0 1-1.042.311H.625a.63.63 0 0 0-.442.18.61.61 0 0 0 0 .871.63.63 0 0 0 .442.18h12.188c.414.001.811.164 1.103.453a1.524 1.524 0 0 1-.004 2.176 1.595 1.595 0 0 1-2.126.082 1.55 1.55 0 0 1-.538-.928l-.007-.037a.609.609 0 0 0-.248-.413.63.63 0 0 0-.983.37.608.608 0 0 0-.001.244l.006.037c.111.65.452 1.24.963 1.665a2.857 2.857 0 0 0 3.82-.151c.528-.52.826-1.224.827-1.96 0-.57-.175-1.098-.474-1.538h1.724a3.15 3.15 0 0 0 2.21-.9c.586-.578.915-1.36.915-2.177 0-.816-.33-1.598-.915-2.175a3.15 3.15 0 0 0-2.21-.902Z"/>
        <path fill="#101828" d="m9.69 2 .124-4.998L9.75-3h-.06l.001 5ZM5.71 5.212l-4.9-.997-.001.009 4.901.988Zm-.072.36L10.5 6.737l.02-.088.019-.089-4.901-.988Zm1.224.24L1.965 4.805l-.019.093-.015.092 4.931.824Zm.074-.357L2.04 4.445v.001l4.897 1.009Zm5.564.544h5v-.013L12.5 6Zm-2.813 2.77v5h.003l-.002-5ZM0 9.385h-5 5ZM9.688 10v5h.06l.06-.002L9.688 10Zm5.312.615h5-5ZM0 13.077h-5 5Zm12.813.615.01-5h-.01v5Zm-.007 3.077.01-5h-.013l.003 5Zm-1.558-1.294-4.93.834.001.008.002.009 4.927-.851Zm-.007-.037-4.953.681.01.077.013.076 4.93-.834Zm-1.232.201 4.93-.834-.013-.075-.015-.074-4.902.983Zm.006.037-4.93.835.002.008 4.928-.843ZM12.806 18l.002-5h-.003l.001 5Zm2.819-2.77 5 .01v-.01h-5Zm-.474-1.538v-5H5.705l5.312 7.812 4.134-2.812ZM9.69-3A9.1 9.1 0 0 0 3.977-.985l6.28 7.782A.901.901 0 0 1 9.691 7L9.69-3ZM3.977-.985a8.987 8.987 0 0 0-3.167 5.2l9.8 1.994c-.05.245-.182.45-.353.588L3.977-.985ZM.809 4.224l-.073.359L10.54 6.56l.072-.359L.81 4.224Zm-.034.182a5.606 5.606 0 0 0-.071 2.267l9.852-1.712c.103.59.083 1.194-.056 1.776L.775 4.406ZM.704 6.673a5.61 5.61 0 0 0 .828 2.104l8.376-5.463a4.39 4.39 0 0 1 .648 1.647L.704 6.673Zm.828 2.104a5.62 5.62 0 0 0 1.574 1.595L8.682 2.07a4.38 4.38 0 0 1 1.226 1.243L1.532 8.777Zm1.574 1.595c.622.418 1.32.706 2.051.85L7.09 1.411a4.37 4.37 0 0 1 1.593.66l-5.576 8.3Zm2.051.85c.73.144 1.483.142 2.213-.007L5.375 1.416a4.365 4.365 0 0 1 1.714-.005l-1.932 9.811Zm2.213-.007a5.63 5.63 0 0 0 2.046-.864l-5.63-8.264a4.37 4.37 0 0 1 1.589-.67l1.995 9.798Zm2.046-.864a5.62 5.62 0 0 0 1.564-1.605L2.568 3.338a4.38 4.38 0 0 1 1.219-1.251l5.63 8.264Zm1.564-1.605a5.61 5.61 0 0 0 .814-2.11L1.931 4.99a4.39 4.39 0 0 1 .637-1.65l8.412 5.407Zm.78-1.925.074-.358-9.795-2.017-.074.358 9.795 2.017Zm.073-.356a2.237 2.237 0 0 1-.873 1.36L5.083-.266a7.763 7.763 0 0 0-3.044 4.71l9.794 2.02Zm-.873 1.36a2.158 2.158 0 0 1-1.479.404l.973-9.953A7.842 7.842 0 0 0 5.083-.266l5.877 8.09Zm-1.479.404a2.174 2.174 0 0 1-1.386-.694L15.446.756a7.826 7.826 0 0 0-4.992-2.48l-.973 9.953Zm-1.386-.694A2.257 2.257 0 0 1 7.5 6.011l10-.025a7.743 7.743 0 0 0-2.053-5.23l-7.352 6.78ZM7.5 6c0-.617.25-1.192.668-1.604l7.017 7.124A7.749 7.749 0 0 0 17.5 6h-10Zm.668-1.604a2.161 2.161 0 0 1 1.517-.626l.005 10a7.836 7.836 0 0 0 5.495-2.25L8.167 4.395Zm1.52-.626H.624v10h9.063v-10Zm-9.063 0a5.63 5.63 0 0 0-3.95 1.618l7.016 7.125A4.37 4.37 0 0 1 .625 13.77v-10Zm-3.95 1.618A5.61 5.61 0 0 0-5 9.385H5a4.39 4.39 0 0 1-1.309 3.127l-7.016-7.125ZM-5 9.385a5.61 5.61 0 0 0 1.675 3.998l7.016-7.126A4.39 4.39 0 0 1 5 9.385H-5Zm1.675 3.998A5.63 5.63 0 0 0 .625 15V5a4.37 4.37 0 0 1 3.066 1.257l-7.016 7.126ZM.625 15h9.063V5H.624v10Zm9.183-.002a9.094 9.094 0 0 0 6.239-2.683l-7.102-7.04A.906.906 0 0 1 9.567 5l.241 9.997Zm6.239-2.683a8.97 8.97 0 0 0 2.605-6.312L8.652 6c0-.286.114-.544.293-.725l7.102 7.04Zm2.605-6.312A8.969 8.969 0 0 0 16.05-.311L8.945 6.725A1.03 1.03 0 0 1 8.652 6l10 .003ZM16.05-.311a9.094 9.094 0 0 0-6.237-2.687l-.248 9.996a.907.907 0 0 1-.621-.273L16.05-.311Zm.824 2.85a8.15 8.15 0 0 0-5.718 2.338l7.016 7.125a1.85 1.85 0 0 1-1.298.537v-10Zm-5.718 2.338a8.053 8.053 0 0 0-2.407 5.738h10c0 .536-.217 1.033-.577 1.387l-7.016-7.125ZM8.75 10.615a5.61 5.61 0 0 0 1.675 3.998l7.016-7.125a4.39 4.39 0 0 1 1.309 3.127h-10Zm1.675 3.998a5.63 5.63 0 0 0 3.95 1.618v-10a4.37 4.37 0 0 1 3.066 1.257l-7.016 7.125Zm3.95 1.618a5.63 5.63 0 0 0 3.95-1.618l-7.016-7.125a4.37 4.37 0 0 1 3.066-1.257v10Zm3.95-1.618A5.611 5.611 0 0 0 20 10.615H10a4.39 4.39 0 0 1 1.309-3.127l7.016 7.125ZM20 10.615c0 .642-.194 1.262-.547 1.782L11.18 6.782A6.826 6.826 0 0 0 10 10.615h10Zm-.547 1.782a3.13 3.13 0 0 1-1.407 1.143l-3.777-9.26a6.868 6.868 0 0 0-3.09 2.502l8.274 5.615Zm-1.407 1.143a3.098 3.098 0 0 1-1.766.171l1.922-9.813a6.902 6.902 0 0 0-3.933.382l3.777 9.26Zm-1.766.171a3.116 3.116 0 0 1-1.587-.838l7.016-7.126a6.884 6.884 0 0 0-3.507-1.85l-1.922 9.814Zm-1.587-.838a3.164 3.164 0 0 1-.88-1.628l9.802-1.98a6.837 6.837 0 0 0-1.906-3.518l-7.016 7.126Zm-.88-1.628a3.18 3.18 0 0 1 .185-1.862l9.218 3.878a6.82 6.82 0 0 0 .399-3.996l-9.802 1.98Zm.185-1.862a3.147 3.147 0 0 1 1.17-1.41l5.497 8.354a6.853 6.853 0 0 0 2.551-3.066l-9.218-3.878Zm1.17-1.41a3.104 3.104 0 0 1 1.707-.511v10a6.896 6.896 0 0 0 3.79-1.134l-5.496-8.355Zm1.707-.511H.625v10h16.25v-10Zm-16.25 0a5.63 5.63 0 0 0-3.95 1.617l7.016 7.126a4.37 4.37 0 0 1-3.066 1.257v-10Zm-3.95 1.617A5.61 5.61 0 0 0-5 13.077H5a4.39 4.39 0 0 1-1.309 3.128l-7.016-7.126ZM-5 13.077a5.61 5.61 0 0 0 1.675 3.998l7.016-7.126A4.39 4.39 0 0 1 5 13.077H-5Zm1.675 3.998a5.63 5.63 0 0 0 3.95 1.617v-10A4.37 4.37 0 0 1 3.691 9.95l-7.016 7.126Zm3.95 1.617h12.188v-10H.624v10Zm12.178 0a3.425 3.425 0 0 1-2.402-.991l7.03-7.112a6.575 6.575 0 0 0-4.609-1.897l-.02 10Zm-2.402-.991a3.474 3.474 0 0 1-1.03-2.477l10 .02a6.527 6.527 0 0 0-1.94-4.655l-7.03 7.112Zm-1.03-2.477a3.473 3.473 0 0 1 1.04-2.473l7.002 7.14a6.526 6.526 0 0 0 1.959-4.647l-10-.02Zm1.04-2.473a3.425 3.425 0 0 1 2.405-.982l-.02 10a6.575 6.575 0 0 0 4.617-1.878l-7.002-7.14Zm2.392-.982a3.41 3.41 0 0 1 2.178.787l-6.39 7.693a6.595 6.595 0 0 0 4.219 1.52l-.007-10Zm2.178.787a3.45 3.45 0 0 1 1.193 2.067l-9.853 1.703a6.55 6.55 0 0 0 2.27 3.923l6.39-7.693Zm1.196 2.084-.006-.037-9.86 1.669.007.037 9.86-1.669Zm.018.116a5.61 5.61 0 0 0-.751-2.128l-8.568 5.157a4.39 4.39 0 0 1-.588-1.666l9.907-1.363Zm-.751-2.128a5.62 5.62 0 0 0-1.512-1.648l-5.878 8.09a4.38 4.38 0 0 1-1.178-1.285l8.568-5.157Zm-1.512-1.648a5.63 5.63 0 0 0-2.015-.924l-2.299 9.732a4.37 4.37 0 0 1-1.564-.718l5.878-8.09Zm-2.015-.924a5.635 5.635 0 0 0-2.206-.077l1.616 9.868a4.364 4.364 0 0 1-1.709-.06l2.299-9.731ZM9.71 9.979a5.632 5.632 0 0 0-2.071.78l5.295 8.483a4.369 4.369 0 0 1-1.608.605L9.711 9.98Zm-2.071.78a5.62 5.62 0 0 0-1.622 1.535l8.18 5.752c-.34.482-.77.888-1.263 1.196L7.64 10.759Zm-1.622 1.535a5.61 5.61 0 0 0-.9 2.066l9.784 2.07a4.392 4.392 0 0 1-.704 1.616l-8.18-5.752Zm-.9 2.066a5.606 5.606 0 0 0-.012 2.263l9.805-1.967a4.393 4.393 0 0 1-.01 1.773L5.119 14.36Zm-.04 2.114.007.037 9.86-1.67-.006-.036-9.86 1.669Zm.009.045a7.777 7.777 0 0 0 2.692 4.665l6.399-7.685c.395.329.674.799.765 1.334L5.087 16.52Zm2.692 4.665A7.856 7.856 0 0 0 12.807 23l-.002-10c.492 0 .979.17 1.373.499l-6.399 7.685ZM12.804 23a7.84 7.84 0 0 0 5.498-2.244l-7.008-7.133A2.16 2.16 0 0 1 12.807 13l-.004 10Zm5.498-2.244a7.753 7.753 0 0 0 2.323-5.516l-10-.018c.001-.615.25-1.189.668-1.6l7.009 7.134Zm2.323-5.525c0-1.61-.498-3.113-1.339-4.35l-8.27 5.623a2.274 2.274 0 0 1-.391-1.273h10Zm-5.474 3.461h1.724v-10h-1.724v10Zm1.724 0a8.15 8.15 0 0 0 5.718-2.338l-7.016-7.126a1.85 1.85 0 0 1 1.298-.536v10Zm5.718-2.338A8.053 8.053 0 0 0 25 10.615H15c0-.535.217-1.032.577-1.387l7.016 7.126ZM25 10.615c0-2.167-.875-4.23-2.407-5.738l-7.016 7.125A1.947 1.947 0 0 1 15 10.615h10Zm-2.407-5.738a8.15 8.15 0 0 0-5.718-2.339v10a1.85 1.85 0 0 1-1.298-.536l7.016-7.125Z" mask="url(#a)"/>
    </symbol>

    <symbol id="icon-transmission" width="17" height="18" viewBox="0 0 17 18" fill="none">
        <path d="M13.1667 8.16667H14.4167C14.7482 8.16667 15.0661 8.03497 15.3006 7.80055C15.535 7.56613 15.6667 7.24819 15.6667 6.91667C15.6667 6.58515 15.535 6.2672 15.3006 6.03278C15.0661 5.79836 14.7482 5.66667 14.4167 5.66667H13.1667V9.83333M13.1667 13.1667V16.5H14C14.442 16.5 14.866 16.3244 15.1785 16.0118C15.4911 15.6993 15.6667 15.2754 15.6667 14.8333C15.6667 14.3913 15.4911 13.9674 15.1785 13.6548C14.866 13.3423 14.442 13.1667 14 13.1667H13.1667ZM1.5 3.16667C1.5 3.60869 1.67559 4.03262 1.98816 4.34518C2.30072 4.65774 2.72464 4.83333 3.16667 4.83333C3.60869 4.83333 4.03262 4.65774 4.34518 4.34518C4.65774 4.03262 4.83333 3.60869 4.83333 3.16667C4.83333 2.72464 4.65774 2.30072 4.34518 1.98816C4.03262 1.67559 3.60869 1.5 3.16667 1.5C2.72464 1.5 2.30072 1.67559 1.98816 1.98816C1.67559 2.30072 1.5 2.72464 1.5 3.16667Z" stroke="#101828" stroke-width="1.5" stroke-linecap="round" stroke-linejoin="round"/>
        <path d="M3.16663 4.83331V7.33331C3.16663 7.55433 3.25442 7.76629 3.4107 7.92257C3.56698 8.07885 3.77895 8.16665 3.99996 8.16665H6.49996M6.49996 8.16665V14C6.49996 14.221 6.58776 14.433 6.74404 14.5892C6.90032 14.7455 7.11228 14.8333 7.33329 14.8333H9.83329M6.49996 8.16665H9.83329" stroke="#101828" stroke-width="1.5" stroke-linecap="round" stroke-linejoin="round"/>
    </symbol>

    <symbol id="icon-adults" width="20" height="14" viewBox="0 0 20 14" fill="none">
        <path d="M5.66666 12.0833H2.91666C2.74999 12.0833 2.66666 12 2.58333 11.9166C2.49999 11.8333 2.41666 11.6666 2.49999 11.5C2.99999 10.0833 4.24999 9.24998 5.66666 9.24998C7.41666 9.24998 8.83333 7.74998 8.83333 5.99998C8.83333 4.24998 7.41666 2.58331 5.66666 2.58331C3.91666 2.58331 2.49999 4.08331 2.49999 5.91665C2.49999 6.74998 2.83333 7.58331 3.33333 8.16665C2.24999 8.74998 1.41666 9.66665 0.91666 10.9166C0.749994 11.5 0.833327 12.25 1.24999 12.8333C1.66666 13.4166 2.24999 13.75 2.91666 13.75H5.66666C6.16666 13.75 6.49999 13.4166 6.49999 12.9166C6.49999 12.4166 6.16666 12.0833 5.66666 12.0833ZM4.16666 5.91665C4.16666 4.99998 4.83333 4.33331 5.66666 4.33331C6.49999 4.33331 7.16666 5.08331 7.16666 5.91665C7.16666 6.83331 6.49999 7.49998 5.66666 7.49998C4.83333 7.49998 4.16666 6.74998 4.16666 5.91665Z" fill="#101828"/>
        <path d="M19.0833 10.4167C18.5 8.83333 17.3333 7.66667 16 7C16.75 6.33333 17.1666 5.33333 17.1666 4.16667C17.1666 2 15.5 0.25 13.5 0.25C11.5 0.25 9.83331 2 9.83331 4.16667C9.83331 5.25 10.25 6.25 11 7C9.66664 7.66667 8.49998 8.83333 7.91664 10.4167C7.49998 11.1667 7.66664 12 8.08331 12.6667C8.49998 13.3333 9.24998 13.6667 9.99998 13.6667H16.9166C17.6666 13.6667 18.4166 13.25 18.8333 12.6667C19.3333 12 19.4166 11.1667 19.0833 10.4167ZM11.4166 4.25C11.4166 3 12.3333 2 13.4166 2C14.5 2 15.4166 3 15.4166 4.25C15.4166 5.5 14.5 6.5 13.4166 6.5C12.3333 6.5 11.4166 5.41667 11.4166 4.25ZM17.4166 11.75C17.3333 11.8333 17.1666 12.0833 16.9166 12.0833H9.99998C9.66664 12.0833 9.49998 11.8333 9.49998 11.75C9.41664 11.6667 9.24998 11.3333 9.41665 11C10.0833 9.25 11.75 8.08333 13.5 8.08333C15.25 8.08333 16.9166 9.25 17.5833 11C17.6666 11.3333 17.5 11.6667 17.4166 11.75Z" fill="#101828"/>
    </symbol>

    <symbol id="icon-star" width="16" height="16" viewBox="0 0 16 16" fill="none">
        <path d="M6.20021 4.69703L8 1.28579L9.79979 4.69703C9.95896 4.9987 10.2491 5.20947 10.5851 5.26762L14.3856 5.92519L11.6975 8.69103C11.4598 8.93563 11.3489 9.27666 11.3975 9.61427L11.9465 13.4319L8.48537 11.7301C8.17929 11.5795 7.82071 11.5796 7.51463 11.7301L4.05348 13.4319L4.6025 9.61427C4.65105 9.27666 4.54024 8.93563 4.30252 8.69103L1.6144 5.92519L5.41486 5.26762C5.75095 5.20947 6.04104 4.9987 6.20021 4.69703ZM14.5177 5.78928L14.5175 5.78947L14.5177 5.78928ZM3.8834 13.5155C3.88344 13.5155 3.88349 13.5155 3.88353 13.5155L3.8834 13.5155Z" fill="#FFC531" stroke="#FFC531" stroke-width="1.2"/>
    </symbol>

    <symbol id="icon-map-pin" width="16" height="16" viewBox="0 0 16 16" fill="none">
        <path d="M14 6.66669C14 11.3334 8 15.3334 8 15.3334C8 15.3334 2 11.3334 2 6.66669C2 5.07539 2.63214 3.54926 3.75736 2.42405C4.88258 1.29883 6.4087 0.666687 8 0.666687C9.5913 0.666687 11.1174 1.29883 12.2426 2.42405C13.3679 3.54926 14 5.07539 14 6.66669Z" stroke="#101828" stroke-width="1.3" stroke-linecap="round" stroke-linejoin="round"/>
        <path d="M8 8.66669C9.10457 8.66669 10 7.77126 10 6.66669C10 5.56212 9.10457 4.66669 8 4.66669C6.89543 4.66669 6 5.56212 6 6.66669C6 7.77126 6.89543 8.66669 8 8.66669Z" stroke="#101828" stroke-width="1.3" stroke-linecap="round" stroke-linejoin="round"/>
    </symbol>

    <symbol id="icon-heart" width="25" height="22" viewBox="0 0 25 22">
        <path d="M21.3401 3.60999C20.8294 3.099 20.2229 2.69364 19.5555 2.41708C18.888 2.14052 18.1726 1.99817 17.4501 1.99817C16.7276 1.99817 16.0122 2.14052 15.3448 2.41708C14.6773 2.69364 14.0709 3.099 13.5601 3.60999L12.5001 4.66999L11.4401 3.60999C10.4084 2.5783 9.00915 1.9987 7.55012 1.9987C6.09108 1.9987 4.69181 2.5783 3.66012 3.60999C2.62843 4.64169 2.04883 6.04096 2.04883 7.49999C2.04883 8.95903 2.62843 10.3583 3.66012 11.39L4.72012 12.45L12.5001 20.23L20.2801 12.45L21.3401 11.39C21.8511 10.8792 22.2565 10.2728 22.533 9.60535C22.8096 8.93789 22.9519 8.22248 22.9519 7.49999C22.9519 6.77751 22.8096 6.0621 22.533 5.39464C22.2565 4.72718 21.8511 4.12075 21.3401 3.60999Z" stroke-width="2.3" stroke-linecap="round" stroke-linejoin="round"/>
    </symbol>

</svg>
