<?xml version="1.0" encoding="UTF-8"?>
<svg xmlns="http://www.w3.org/2000/svg" xmlns:xlink="http://www.w3.org/1999/xlink" width="0" height="0">
    <symbol id="icon-microwave"   viewBox="0 0 20 16" fill="none">
        <path d="M18.5714 1.57141H1.42852C1.23908 1.57141 1.0574 1.64667 0.923443 1.78062C0.789488 1.91458 0.714233 2.09626 0.714233 2.2857V13.7143C0.714233 13.9037 0.789488 14.0854 0.923443 14.2193C1.0574 14.3533 1.23908 14.4286 1.42852 14.4286H18.5714C18.7608 14.4286 18.9425 14.3533 19.0765 14.2193C19.2104 14.0854 19.2857 13.9037 19.2857 13.7143V2.2857C19.2857 2.09626 19.2104 1.91458 19.0765 1.78062C18.9425 1.64667 18.7608 1.57141 18.5714 1.57141Z" stroke="#101828" stroke-width="1.4" stroke-linecap="round" stroke-linejoin="round"/>
        <path d="M15.7143 5.14281H16.4286M15.7143 7.99996H16.4286M12.1428 4.42853H4.2857C4.09626 4.42853 3.91458 4.50378 3.78062 4.63774C3.64667 4.77169 3.57141 4.95337 3.57141 5.14281V10.8571C3.57141 11.0465 3.64667 11.2282 3.78062 11.3622C3.91458 11.4961 4.09626 11.5714 4.2857 11.5714H12.1428C12.3323 11.5714 12.514 11.4961 12.6479 11.3622C12.7819 11.2282 12.8571 11.0465 12.8571 10.8571V5.14281C12.8571 4.95337 12.7819 4.77169 12.6479 4.63774C12.514 4.50378 12.3323 4.42853 12.1428 4.42853Z" stroke="#101828" stroke-width="1.4" stroke-linecap="round" stroke-linejoin="round"/>
    </symbol>

    <symbol id="icon-water"   viewBox="0 0 20 20" fill="none">
        <path d="M15.625 12.5C15.625 15.952 13.452 18.125 10 18.125C6.54805 18.125 4.375 15.952 4.375 12.5C4.375 8.79571 8.40742 3.79492 9.64414 2.34844C9.68815 2.29705 9.74276 2.25579 9.80422 2.2275C9.86568 2.19922 9.93254 2.18457 10.0002 2.18457C10.0679 2.18457 10.1347 2.19922 10.1962 2.2275C10.2576 2.25579 10.3122 2.29705 10.3562 2.34844C11.5926 3.79492 15.625 8.79571 15.625 12.5Z" stroke="black" stroke-width="1.5" stroke-miterlimit="10"/>
        <path d="M13.4375 12.8125C13.4375 13.5584 13.1412 14.2738 12.6137 14.8012C12.0863 15.3287 11.3709 15.625 10.625 15.625" stroke="black" stroke-width="1.5" stroke-linecap="round" stroke-linejoin="round"/>
    </symbol>

    <symbol id="icon-gas"   viewBox="0 0 14 17" fill="none">
        <path d="M12.6699 7.74467C12.44 7.46132 12.16 7.21576 11.9001 6.9702C11.2302 6.40352 10.4703 5.99739 9.83046 5.40238C8.34073 4.02345 8.01079 1.74727 8.96062 0C8.01079 0.217228 7.18094 0.708354 6.47107 1.2467C3.88155 3.2112 2.86173 6.67741 4.08151 9.6525C4.1215 9.74694 4.16149 9.84139 4.16149 9.96417C4.16149 10.172 4.01152 10.3609 3.81156 10.4364C3.5816 10.5309 3.34165 10.4742 3.15168 10.3231C3.09459 10.2785 3.04708 10.224 3.01171 10.1625C1.88191 8.81192 1.70194 6.87575 2.46181 5.32682C0.792111 6.6113 -0.117722 8.78358 0.0122545 10.8331C0.0722435 11.3053 0.132232 11.7776 0.302201 12.2498C0.442176 12.8165 0.712126 13.3832 1.01207 13.8837C2.09187 15.5177 3.96153 16.6888 5.97116 16.9249C8.11077 17.1799 10.4004 16.8116 12.0401 15.4138C13.8697 13.846 14.5096 11.3337 13.5698 9.18026L13.4398 8.9347C13.2298 8.50024 12.6699 7.74467 12.6699 7.74467ZM9.51052 13.6948C9.23057 13.9215 8.77065 14.1671 8.41072 14.2615C7.29092 14.6393 6.17113 14.1104 5.51125 13.4871C6.70103 13.2226 7.4109 12.3915 7.62086 11.5509C7.79083 10.7953 7.47089 10.172 7.34091 9.44471C7.22093 8.7458 7.24093 8.15079 7.51088 7.4991C7.70085 7.858 7.90081 8.2169 8.14077 8.50024C8.91063 9.44471 10.1204 9.86028 10.3804 11.1448C10.4203 11.277 10.4403 11.4092 10.4403 11.5509C10.4703 12.3254 10.1104 13.1754 9.51052 13.6948Z" fill="#101828"/>
    </symbol>

    <symbol id="icon-freezer"   viewBox="0 0 20 20" fill="none">
        <path d="M14.625 1.875H5.37915C4.68879 1.875 4.12915 2.43464 4.12915 3.125V15.8667C4.12915 16.557 4.68879 17.1167 5.37915 17.1167H14.625C15.3153 17.1167 15.875 16.557 15.875 15.8667V3.125C15.875 2.43464 15.3153 1.875 14.625 1.875Z" stroke="#101828" stroke-width="1.3" stroke-linecap="round" stroke-linejoin="round"/>
        <path d="M4.12915 8.20416H15.8708M6.44582 6.60416V4.07916M6.44582 12.15V9.625M5.26665 17.1167V17.5542C5.26665 17.7048 5.32622 17.8494 5.43237 17.9563C5.53852 18.0633 5.68265 18.1239 5.83332 18.125H6.86248C7.01388 18.125 7.15907 18.0649 7.26612 17.9578C7.37318 17.8507 7.43332 17.7056 7.43332 17.5542V17.1167M12.5625 17.1167V17.5542C12.5625 17.7056 12.6226 17.8507 12.7297 17.9578C12.8367 18.0649 12.9819 18.125 13.1333 18.125H14.1667C14.318 18.125 14.4632 18.0649 14.5703 17.9578C14.6773 17.8507 14.7375 17.7056 14.7375 17.5542V17.1167" stroke="#101828" stroke-width="1.3" stroke-linecap="round" stroke-linejoin="round"/>
    </symbol>

    <symbol id="icon-shower"   viewBox="0 0 16 16" fill="none">
        <path d="M1.33337 1.33331L3.41671 3.41665M9.25004 3.41665C8.47383 2.65596 7.42879 2.23234 6.342 2.23783C5.25522 2.24332 4.21451 2.67748 3.44602 3.44596C2.67754 4.21444 2.24338 5.25516 2.23789 6.34194C2.2324 7.42873 2.65603 8.47377 3.41671 9.24998M10.5 2.16665L2.16671 10.5M9.66671 12.1666V12.175M6.33337 11.3333V11.3416M8.83337 8.83331V8.84165M11.3334 6.33331V6.34165M7.16671 14.6666V14.675M12.1667 9.66665V9.67498M14.6667 7.16665V7.17498" stroke="#101828" stroke-width="1.6" stroke-linecap="round" stroke-linejoin="round"/>
    </symbol>

    <symbol id="icon-toilet"   viewBox="0 0 20 20" fill="none">
        <path d="M15 2.5C16.2116 2.5 17.0433 3.52917 17.525 4.57083C18.0008 5.60417 18.29 6.9525 18.3291 8.41167L18.3333 8.75V16.6667C18.3334 16.779 18.3108 16.8901 18.2668 16.9935C18.2229 17.0968 18.1585 17.1902 18.0776 17.268C17.9966 17.3459 17.9008 17.4065 17.7958 17.4464C17.6908 17.4863 17.5788 17.5045 17.4666 17.5L17.3633 17.4883L15 17.095L12.6366 17.4883C12.5366 17.505 12.4344 17.5033 12.335 17.4833L12.2366 17.4575L9.99996 16.7117L7.76329 17.4575C7.64597 17.4966 7.52143 17.5091 7.39869 17.4941C7.27594 17.479 7.15808 17.4369 7.05365 17.3707C6.94922 17.3045 6.86083 17.2158 6.7949 17.1112C6.72897 17.0066 6.68714 16.8886 6.67246 16.7658L6.66663 16.6667V14.2275C6.22413 14.6858 5.66996 15 4.99996 15C3.78829 15 2.95663 13.9708 2.47496 12.9292C1.96329 11.8167 1.66663 10.3383 1.66663 8.75C1.66663 7.16167 1.96246 5.68333 2.47496 4.57083C2.93413 3.57583 3.71329 2.59333 4.83746 2.50667L4.99996 2.5H15ZM15 4.16667H7.31829C7.39329 4.3 7.46163 4.435 7.52413 4.57083C8.03746 5.68333 8.33329 7.16167 8.33329 8.75V15.5108L9.73663 15.0425C9.90757 14.9856 10.0924 14.9856 10.2633 15.0425L12.5675 15.8108L14.8633 15.4275C14.9533 15.4125 15.0466 15.4125 15.1366 15.4275L16.6666 15.6833V8.75C16.6666 7.34667 16.4025 6.11667 16.0108 5.26917C15.5875 4.35 15.1691 4.16667 15 4.16667ZM4.99996 4.16667C4.83079 4.16667 4.41246 4.35 3.98913 5.26917C3.59746 6.11667 3.33329 7.34667 3.33329 8.75C3.33329 10.1533 3.59746 11.3833 3.98913 12.2308C4.41246 13.15 4.83079 13.3333 4.99996 13.3333C5.16913 13.3333 5.58746 13.15 6.01079 12.2308C6.40246 11.3833 6.66663 10.1533 6.66663 8.75C6.66663 7.34667 6.40246 6.11667 6.01079 5.26917C5.58746 4.35 5.16913 4.16667 4.99996 4.16667ZM4.99996 7.08333C5.45996 7.08333 5.83329 7.82917 5.83329 8.75C5.83329 9.67083 5.45996 10.4167 4.99996 10.4167C4.53996 10.4167 4.16663 9.67083 4.16663 8.75C4.16663 7.82917 4.53996 7.08333 4.99996 7.08333Z" fill="#101828"/>
    </symbol>

    <symbol id="icon-hob"   viewBox="0 0 20 15" fill="none">
        <path d="M7.49996 1.16669H17.5C17.721 1.16669 17.9329 1.25448 18.0892 1.41076C18.2455 1.56705 18.3333 1.77901 18.3333 2.00002V12.8334C18.3333 13.0544 18.2455 13.2663 18.0892 13.4226C17.9329 13.5789 17.721 13.6667 17.5 13.6667H7.49996M7.49996 1.16669H2.49996C2.27895 1.16669 2.06698 1.25448 1.9107 1.41076C1.75442 1.56705 1.66663 1.77901 1.66663 2.00002V12.8334C1.66663 13.0544 1.75442 13.2663 1.9107 13.4226C2.06698 13.5789 2.27895 13.6667 2.49996 13.6667H7.49996M7.49996 1.16669V13.6667" stroke="#101828" stroke-width="1.5"/>
        <path d="M4.58325 4.08335V5.75002M15.4166 3.66669L10.4166 10.75" stroke="#101828" stroke-width="1.5" stroke-linecap="round" stroke-linejoin="round"/>
        <path d="M5.41667 8.25002C5.41667 7.78978 5.04357 7.41669 4.58333 7.41669C4.1231 7.41669 3.75 7.78978 3.75 8.25002C3.75 8.71026 4.1231 9.08335 4.58333 9.08335C5.04357 9.08335 5.41667 8.71026 5.41667 8.25002Z" fill="#101828"/>
        <path d="M5.41667 10.75C5.41667 10.2898 5.04357 9.91669 4.58333 9.91669C4.1231 9.91669 3.75 10.2898 3.75 10.75C3.75 11.2103 4.1231 11.5834 4.58333 11.5834C5.04357 11.5834 5.41667 11.2103 5.41667 10.75Z" fill="#101828"/>
    </symbol>

    <symbol id="icon-radio"   viewBox="0 0 18 18" fill="none">
        <path d="M0.666626 10.6667C0.666626 7.52417 0.666626 5.9525 1.64329 4.97667C2.61913 4 4.19079 4 7.33329 4H10.6666C13.8091 4 15.3808 4 16.3566 4.97667C17.3333 5.9525 17.3333 7.52417 17.3333 10.6667C17.3333 13.8092 17.3333 15.3808 16.3566 16.3567C15.3808 17.3333 13.8091 17.3333 10.6666 17.3333H7.33329C4.19079 17.3333 2.61913 17.3333 1.64329 16.3567C0.666626 15.3808 0.666626 13.8092 0.666626 10.6667Z" stroke="#101828" stroke-width="1.3"/>
        <path d="M3.16663 8.16667C3.16663 7.72464 3.34222 7.30072 3.65478 6.98816C3.96734 6.6756 4.39127 6.5 4.83329 6.5H13.1666C13.6087 6.5 14.0326 6.6756 14.3451 6.98816C14.6577 7.30072 14.8333 7.72464 14.8333 8.16667C14.8333 8.60869 14.6577 9.03262 14.3451 9.34518C14.0326 9.65774 13.6087 9.83333 13.1666 9.83333H4.83329C4.39127 9.83333 3.96734 9.65774 3.65478 9.34518C3.34222 9.03262 3.16663 8.60869 3.16663 8.16667ZM6.49996 13.1667C6.49996 13.4982 6.36826 13.8161 6.13384 14.0505C5.89942 14.285 5.58148 14.4167 5.24996 14.4167C4.91844 14.4167 4.6005 14.285 4.36608 14.0505C4.13166 13.8161 3.99996 13.4982 3.99996 13.1667C3.99996 12.8351 4.13166 12.5172 4.36608 12.2828C4.6005 12.0484 4.91844 11.9167 5.24996 11.9167C5.58148 11.9167 5.89942 12.0484 6.13384 12.2828C6.36826 12.5172 6.49996 12.8351 6.49996 13.1667Z" stroke="#101828" stroke-width="1.3"/>
        <path d="M11.5 8.58335V9.83335M9.83329 13.1667H14M4.41663 4.00002L11.5 0.666687" stroke="#101828" stroke-width="1.3" stroke-linecap="round"/>
    </symbol>

    <symbol id="icon-cd"   viewBox="0 0 18 18" fill="none">
        <path d="M9 16.5C13.1421 16.5 16.5 13.1421 16.5 9C16.5 4.85786 13.1421 1.5 9 1.5C4.85786 1.5 1.5 4.85786 1.5 9C1.5 13.1421 4.85786 16.5 9 16.5Z" stroke="#101828" stroke-width="1.5"/>
        <path d="M4.41663 9.00002C4.41663 6.46877 6.46871 4.41669 8.99996 4.41669" stroke="#101828" stroke-width="1.5" stroke-linecap="round"/>
        <path d="M8.99996 11.0834C10.1506 11.0834 11.0833 10.1506 11.0833 9.00002C11.0833 7.84943 10.1506 6.91669 8.99996 6.91669C7.84937 6.91669 6.91663 7.84943 6.91663 9.00002C6.91663 10.1506 7.84937 11.0834 8.99996 11.0834Z" stroke="#101828" stroke-width="1.5"/>
    </symbol>

    <symbol id="icon-air-conditioner" viewBox="0 0 20 20" fill="none">
        <path d="M17.8571 0.714294H2.1428C1.76392 0.714294 1.40056 0.864804 1.13265 1.13271C0.864743 1.40062 0.714233 1.76399 0.714233 2.14287V9.28572C0.714233 9.6646 0.864743 10.028 1.13265 10.2959C1.40056 10.5638 1.76392 10.7143 2.1428 10.7143H17.8571C18.236 10.7143 18.5993 10.5638 18.8672 10.2959C19.1352 10.028 19.2857 9.6646 19.2857 9.28572V2.14287C19.2857 1.76399 19.1352 1.40062 18.8672 1.13271C18.5993 0.864804 18.236 0.714294 17.8571 0.714294Z" stroke="#101828" stroke-width="1.5" stroke-linecap="round" stroke-linejoin="round"/>
        <path d="M15.7143 10.7143V7.85716C15.7143 7.47828 15.5638 7.11492 15.2958 6.84701C15.0279 6.5791 14.6646 6.42859 14.2857 6.42859H5.71427C5.33539 6.42859 4.97202 6.5791 4.70412 6.84701C4.43621 7.11492 4.2857 7.47828 4.2857 7.85716V10.7143M3.57141 17.8572H3.71427C4.2447 17.8572 4.75341 17.6464 5.12848 17.2714C5.50355 16.8963 5.71427 16.3876 5.71427 15.8572V14.2857M16.4286 17.8572H16.2857C15.7553 17.8572 15.2466 17.6464 14.8715 17.2714C14.4964 16.8963 14.2857 16.3876 14.2857 15.8572V14.2857M9.99998 19.2857V14.2857" stroke="#101828" stroke-width="1.5" stroke-linecap="round" stroke-linejoin="round"/>
    </symbol>

    <symbol id="icon-bed"   viewBox="0 0 20 20" fill="none">
        <path d="M1.875 16.25V11.875C1.87696 11.2126 2.14098 10.5778 2.6094 10.1094C3.07781 9.64098 3.71256 9.37696 4.375 9.375H15.625C16.2874 9.37696 16.9222 9.64098 17.3906 10.1094C17.859 10.5778 18.123 11.2126 18.125 11.875V16.25M15 9.375H3.75V5.3125C3.75124 4.89848 3.91625 4.50177 4.20901 4.20901C4.50177 3.91625 4.89848 3.75124 5.3125 3.75H14.6875C15.1015 3.75124 15.4982 3.91625 15.791 4.20901C16.0837 4.50177 16.2488 4.89848 16.25 5.3125V9.375H15Z" stroke="#101828" stroke-width="1.4" stroke-linecap="round" stroke-linejoin="round"/>
        <path d="M1.875 16.25V15.9375C1.87572 15.6891 1.97473 15.451 2.15038 15.2754C2.32604 15.0997 2.56408 15.0007 2.8125 15H17.1875C17.4359 15.0007 17.674 15.0997 17.8496 15.2754C18.0253 15.451 18.1243 15.6891 18.125 15.9375V16.25M4.375 9.375V8.75C4.37593 8.41876 4.50792 8.10136 4.74214 7.86714C4.97636 7.63292 5.29376 7.50093 5.625 7.5H8.75C9.08124 7.50093 9.39864 7.63292 9.63286 7.86714C9.86708 8.10136 9.99907 8.41876 10 8.75M10 8.75V9.375M10 8.75C10.0009 8.41876 10.1329 8.10136 10.3671 7.86714C10.6014 7.63292 10.9188 7.50093 11.25 7.5H14.375C14.7062 7.50093 15.0236 7.63292 15.2579 7.86714C15.4921 8.10136 15.6241 8.41876 15.625 8.75V9.375" stroke="#101828" stroke-width="1.4" stroke-linecap="round" stroke-linejoin="round"/>
    </symbol>

    <symbol id="icon-kitchen"   viewBox="0 0 14 18" fill="none">
        <path d="M12.8333 11.5V1.5C8.81996 5.32833 8.64746 8.4325 8.66663 11.5H12.8333ZM12.8333 11.5V16.5H12V14M3.66663 2.33333V16.5M1.16663 2.33333V4.83333C1.16663 5.49637 1.43002 6.13226 1.89886 6.6011C2.3677 7.06994 3.00358 7.33333 3.66663 7.33333C4.32967 7.33333 4.96555 7.06994 5.43439 6.6011C5.90323 6.13226 6.16663 5.49637 6.16663 4.83333V2.33333" stroke="#101828" stroke-width="1.5" stroke-linecap="round" stroke-linejoin="round"/>
    </symbol>

    <symbol id="icon-petrol"   viewBox="0 0 15 16" fill="none">
        <path d="M13.475 4.025L13.4834 4.01667L10.3834 0.916667L9.50004 1.8L11.2584 3.55833C10.475 3.85833 9.91671 4.60833 9.91671 5.5C9.91671 5.77359 9.97059 6.0445 10.0753 6.29726C10.18 6.55002 10.3334 6.77968 10.5269 6.97314C10.9176 7.36384 11.4475 7.58333 12 7.58333C12.3 7.58333 12.575 7.51667 12.8334 7.40833V13.4167C12.8334 13.6377 12.7456 13.8496 12.5893 14.0059C12.433 14.1622 12.2211 14.25 12 14.25C11.779 14.25 11.5671 14.1622 11.4108 14.0059C11.2545 13.8496 11.1667 13.6377 11.1667 13.4167V9.66667C11.1667 9.22464 10.9911 8.80072 10.6786 8.48816C10.366 8.17559 9.94207 8 9.50004 8H8.66671V2.16667C8.66671 1.72464 8.49111 1.30072 8.17855 0.988155C7.86599 0.675595 7.44207 0.5 7.00004 0.5H2.00004C1.55801 0.5 1.13409 0.675595 0.821529 0.988155C0.508969 1.30072 0.333374 1.72464 0.333374 2.16667V15.5H8.66671V9.25H9.91671V13.4167C9.91671 13.9692 10.1362 14.4991 10.5269 14.8898C10.9176 15.2805 11.4475 15.5 12 15.5C12.2736 15.5 12.5445 15.4461 12.7973 15.3414C13.0501 15.2367 13.2797 15.0833 13.4732 14.8898C13.6666 14.6964 13.8201 14.4667 13.9248 14.2139C14.0295 13.9612 14.0834 13.6903 14.0834 13.4167V5.5C14.0834 4.925 13.85 4.4 13.475 4.025ZM7.00004 9.25V13.8333H2.00004V8H7.00004V9.25ZM7.00004 6.33333H2.00004V2.16667H7.00004V6.33333ZM12 6.33333C11.779 6.33333 11.5671 6.24554 11.4108 6.08926C11.2545 5.93297 11.1667 5.72101 11.1667 5.5C11.1667 5.27899 11.2545 5.06702 11.4108 4.91074C11.5671 4.75446 11.779 4.66667 12 4.66667C12.2211 4.66667 12.433 4.75446 12.5893 4.91074C12.7456 5.06702 12.8334 5.27899 12.8334 5.5C12.8334 5.72101 12.7456 5.93297 12.5893 6.08926C12.433 6.24554 12.2211 6.33333 12 6.33333Z" fill="#101828"/>
    </symbol>

    <symbol id="icon-ac" viewBox="0 0 20 20" fill="none" xmlns="http://www.w3.org/2000/svg">
        <mask id="a" fill="#fff">
            <path d="M9.69 2a4.1 4.1 0 0 0-2.573.906A3.987 3.987 0 0 0 5.71 5.212l-.072.36a.606.606 0 0 0 .256.65.63.63 0 0 0 .968-.41l.074-.357a2.763 2.763 0 0 1 1.086-1.676 2.842 2.842 0 0 1 3.748.367c.468.507.728 1.167.73 1.853a2.75 2.75 0 0 1-.824 1.958 2.836 2.836 0 0 1-1.989.812H.626a.63.63 0 0 0-.442.18.61.61 0 0 0 0 .87.63.63 0 0 0 .442.181h9.063a4.094 4.094 0 0 0 2.808-1.205A3.97 3.97 0 0 0 13.652 6a3.97 3.97 0 0 0-1.154-2.794A4.094 4.094 0 0 0 9.69 2Zm7.185 5.538a3.15 3.15 0 0 0-2.21.902 3.053 3.053 0 0 0-.915 2.175c0 .164.066.32.183.435a.63.63 0 0 0 .884 0 .61.61 0 0 0 .183-.435c0-.365.11-.722.316-1.025a1.87 1.87 0 0 1 .841-.68 1.902 1.902 0 0 1 2.044.4 1.82 1.82 0 0 1 .406 2.012 1.853 1.853 0 0 1-.69.828 1.897 1.897 0 0 1-1.042.311H.625a.63.63 0 0 0-.442.18.61.61 0 0 0 0 .871.63.63 0 0 0 .442.18h12.188c.414.001.811.164 1.103.453a1.524 1.524 0 0 1-.004 2.176 1.595 1.595 0 0 1-2.126.082 1.55 1.55 0 0 1-.538-.928l-.007-.037a.609.609 0 0 0-.248-.413.63.63 0 0 0-.983.37.608.608 0 0 0-.001.244l.006.037c.111.65.452 1.24.963 1.665a2.857 2.857 0 0 0 3.82-.151c.528-.52.826-1.224.827-1.96 0-.57-.175-1.098-.474-1.538h1.724a3.15 3.15 0 0 0 2.21-.9c.586-.578.915-1.36.915-2.177 0-.816-.33-1.598-.915-2.175a3.15 3.15 0 0 0-2.21-.902Z"/>
        </mask>
        <path fill="#101828" d="M9.69 2a4.1 4.1 0 0 0-2.573.906A3.987 3.987 0 0 0 5.71 5.212l-.072.36a.606.606 0 0 0 .256.65.63.63 0 0 0 .968-.41l.074-.357a2.763 2.763 0 0 1 1.086-1.676 2.842 2.842 0 0 1 3.748.367c.468.507.728 1.167.73 1.853a2.75 2.75 0 0 1-.824 1.958 2.836 2.836 0 0 1-1.989.812H.626a.63.63 0 0 0-.442.18.61.61 0 0 0 0 .87.63.63 0 0 0 .442.181h9.063a4.094 4.094 0 0 0 2.808-1.205A3.97 3.97 0 0 0 13.652 6a3.97 3.97 0 0 0-1.154-2.794A4.094 4.094 0 0 0 9.69 2Zm7.185 5.538a3.15 3.15 0 0 0-2.21.902 3.053 3.053 0 0 0-.915 2.175c0 .164.066.32.183.435a.63.63 0 0 0 .884 0 .61.61 0 0 0 .183-.435c0-.365.11-.722.316-1.025a1.87 1.87 0 0 1 .841-.68 1.902 1.902 0 0 1 2.044.4 1.82 1.82 0 0 1 .406 2.012 1.853 1.853 0 0 1-.69.828 1.897 1.897 0 0 1-1.042.311H.625a.63.63 0 0 0-.442.18.61.61 0 0 0 0 .871.63.63 0 0 0 .442.18h12.188c.414.001.811.164 1.103.453a1.524 1.524 0 0 1-.004 2.176 1.595 1.595 0 0 1-2.126.082 1.55 1.55 0 0 1-.538-.928l-.007-.037a.609.609 0 0 0-.248-.413.63.63 0 0 0-.983.37.608.608 0 0 0-.001.244l.006.037c.111.65.452 1.24.963 1.665a2.857 2.857 0 0 0 3.82-.151c.528-.52.826-1.224.827-1.96 0-.57-.175-1.098-.474-1.538h1.724a3.15 3.15 0 0 0 2.21-.9c.586-.578.915-1.36.915-2.177 0-.816-.33-1.598-.915-2.175a3.15 3.15 0 0 0-2.21-.902Z"/>
        <path fill="#101828" d="m9.69 2 .124-4.998L9.75-3h-.06l.001 5ZM5.71 5.212l-4.9-.997-.001.009 4.901.988Zm-.072.36L10.5 6.737l.02-.088.019-.089-4.901-.988Zm1.224.24L1.965 4.805l-.019.093-.015.092 4.931.824Zm.074-.357L2.04 4.445v.001l4.897 1.009Zm5.564.544h5v-.013L12.5 6Zm-2.813 2.77v5h.003l-.002-5ZM0 9.385h-5 5ZM9.688 10v5h.06l.06-.002L9.688 10Zm5.312.615h5-5ZM0 13.077h-5 5Zm12.813.615.01-5h-.01v5Zm-.007 3.077.01-5h-.013l.003 5Zm-1.558-1.294-4.93.834.001.008.002.009 4.927-.851Zm-.007-.037-4.953.681.01.077.013.076 4.93-.834Zm-1.232.201 4.93-.834-.013-.075-.015-.074-4.902.983Zm.006.037-4.93.835.002.008 4.928-.843ZM12.806 18l.002-5h-.003l.001 5Zm2.819-2.77 5 .01v-.01h-5Zm-.474-1.538v-5H5.705l5.312 7.812 4.134-2.812ZM9.69-3A9.1 9.1 0 0 0 3.977-.985l6.28 7.782A.901.901 0 0 1 9.691 7L9.69-3ZM3.977-.985a8.987 8.987 0 0 0-3.167 5.2l9.8 1.994c-.05.245-.182.45-.353.588L3.977-.985ZM.809 4.224l-.073.359L10.54 6.56l.072-.359L.81 4.224Zm-.034.182a5.606 5.606 0 0 0-.071 2.267l9.852-1.712c.103.59.083 1.194-.056 1.776L.775 4.406ZM.704 6.673a5.61 5.61 0 0 0 .828 2.104l8.376-5.463a4.39 4.39 0 0 1 .648 1.647L.704 6.673Zm.828 2.104a5.62 5.62 0 0 0 1.574 1.595L8.682 2.07a4.38 4.38 0 0 1 1.226 1.243L1.532 8.777Zm1.574 1.595c.622.418 1.32.706 2.051.85L7.09 1.411a4.37 4.37 0 0 1 1.593.66l-5.576 8.3Zm2.051.85c.73.144 1.483.142 2.213-.007L5.375 1.416a4.365 4.365 0 0 1 1.714-.005l-1.932 9.811Zm2.213-.007a5.63 5.63 0 0 0 2.046-.864l-5.63-8.264a4.37 4.37 0 0 1 1.589-.67l1.995 9.798Zm2.046-.864a5.62 5.62 0 0 0 1.564-1.605L2.568 3.338a4.38 4.38 0 0 1 1.219-1.251l5.63 8.264Zm1.564-1.605a5.61 5.61 0 0 0 .814-2.11L1.931 4.99a4.39 4.39 0 0 1 .637-1.65l8.412 5.407Zm.78-1.925.074-.358-9.795-2.017-.074.358 9.795 2.017Zm.073-.356a2.237 2.237 0 0 1-.873 1.36L5.083-.266a7.763 7.763 0 0 0-3.044 4.71l9.794 2.02Zm-.873 1.36a2.158 2.158 0 0 1-1.479.404l.973-9.953A7.842 7.842 0 0 0 5.083-.266l5.877 8.09Zm-1.479.404a2.174 2.174 0 0 1-1.386-.694L15.446.756a7.826 7.826 0 0 0-4.992-2.48l-.973 9.953Zm-1.386-.694A2.257 2.257 0 0 1 7.5 6.011l10-.025a7.743 7.743 0 0 0-2.053-5.23l-7.352 6.78ZM7.5 6c0-.617.25-1.192.668-1.604l7.017 7.124A7.749 7.749 0 0 0 17.5 6h-10Zm.668-1.604a2.161 2.161 0 0 1 1.517-.626l.005 10a7.836 7.836 0 0 0 5.495-2.25L8.167 4.395Zm1.52-.626H.624v10h9.063v-10Zm-9.063 0a5.63 5.63 0 0 0-3.95 1.618l7.016 7.125A4.37 4.37 0 0 1 .625 13.77v-10Zm-3.95 1.618A5.61 5.61 0 0 0-5 9.385H5a4.39 4.39 0 0 1-1.309 3.127l-7.016-7.125ZM-5 9.385a5.61 5.61 0 0 0 1.675 3.998l7.016-7.126A4.39 4.39 0 0 1 5 9.385H-5Zm1.675 3.998A5.63 5.63 0 0 0 .625 15V5a4.37 4.37 0 0 1 3.066 1.257l-7.016 7.126ZM.625 15h9.063V5H.624v10Zm9.183-.002a9.094 9.094 0 0 0 6.239-2.683l-7.102-7.04A.906.906 0 0 1 9.567 5l.241 9.997Zm6.239-2.683a8.97 8.97 0 0 0 2.605-6.312L8.652 6c0-.286.114-.544.293-.725l7.102 7.04Zm2.605-6.312A8.969 8.969 0 0 0 16.05-.311L8.945 6.725A1.03 1.03 0 0 1 8.652 6l10 .003ZM16.05-.311a9.094 9.094 0 0 0-6.237-2.687l-.248 9.996a.907.907 0 0 1-.621-.273L16.05-.311Zm.824 2.85a8.15 8.15 0 0 0-5.718 2.338l7.016 7.125a1.85 1.85 0 0 1-1.298.537v-10Zm-5.718 2.338a8.053 8.053 0 0 0-2.407 5.738h10c0 .536-.217 1.033-.577 1.387l-7.016-7.125ZM8.75 10.615a5.61 5.61 0 0 0 1.675 3.998l7.016-7.125a4.39 4.39 0 0 1 1.309 3.127h-10Zm1.675 3.998a5.63 5.63 0 0 0 3.95 1.618v-10a4.37 4.37 0 0 1 3.066 1.257l-7.016 7.125Zm3.95 1.618a5.63 5.63 0 0 0 3.95-1.618l-7.016-7.125a4.37 4.37 0 0 1 3.066-1.257v10Zm3.95-1.618A5.611 5.611 0 0 0 20 10.615H10a4.39 4.39 0 0 1 1.309-3.127l7.016 7.125ZM20 10.615c0 .642-.194 1.262-.547 1.782L11.18 6.782A6.826 6.826 0 0 0 10 10.615h10Zm-.547 1.782a3.13 3.13 0 0 1-1.407 1.143l-3.777-9.26a6.868 6.868 0 0 0-3.09 2.502l8.274 5.615Zm-1.407 1.143a3.098 3.098 0 0 1-1.766.171l1.922-9.813a6.902 6.902 0 0 0-3.933.382l3.777 9.26Zm-1.766.171a3.116 3.116 0 0 1-1.587-.838l7.016-7.126a6.884 6.884 0 0 0-3.507-1.85l-1.922 9.814Zm-1.587-.838a3.164 3.164 0 0 1-.88-1.628l9.802-1.98a6.837 6.837 0 0 0-1.906-3.518l-7.016 7.126Zm-.88-1.628a3.18 3.18 0 0 1 .185-1.862l9.218 3.878a6.82 6.82 0 0 0 .399-3.996l-9.802 1.98Zm.185-1.862a3.147 3.147 0 0 1 1.17-1.41l5.497 8.354a6.853 6.853 0 0 0 2.551-3.066l-9.218-3.878Zm1.17-1.41a3.104 3.104 0 0 1 1.707-.511v10a6.896 6.896 0 0 0 3.79-1.134l-5.496-8.355Zm1.707-.511H.625v10h16.25v-10Zm-16.25 0a5.63 5.63 0 0 0-3.95 1.617l7.016 7.126a4.37 4.37 0 0 1-3.066 1.257v-10Zm-3.95 1.617A5.61 5.61 0 0 0-5 13.077H5a4.39 4.39 0 0 1-1.309 3.128l-7.016-7.126ZM-5 13.077a5.61 5.61 0 0 0 1.675 3.998l7.016-7.126A4.39 4.39 0 0 1 5 13.077H-5Zm1.675 3.998a5.63 5.63 0 0 0 3.95 1.617v-10A4.37 4.37 0 0 1 3.691 9.95l-7.016 7.126Zm3.95 1.617h12.188v-10H.624v10Zm12.178 0a3.425 3.425 0 0 1-2.402-.991l7.03-7.112a6.575 6.575 0 0 0-4.609-1.897l-.02 10Zm-2.402-.991a3.474 3.474 0 0 1-1.03-2.477l10 .02a6.527 6.527 0 0 0-1.94-4.655l-7.03 7.112Zm-1.03-2.477a3.473 3.473 0 0 1 1.04-2.473l7.002 7.14a6.526 6.526 0 0 0 1.959-4.647l-10-.02Zm1.04-2.473a3.425 3.425 0 0 1 2.405-.982l-.02 10a6.575 6.575 0 0 0 4.617-1.878l-7.002-7.14Zm2.392-.982a3.41 3.41 0 0 1 2.178.787l-6.39 7.693a6.595 6.595 0 0 0 4.219 1.52l-.007-10Zm2.178.787a3.45 3.45 0 0 1 1.193 2.067l-9.853 1.703a6.55 6.55 0 0 0 2.27 3.923l6.39-7.693Zm1.196 2.084-.006-.037-9.86 1.669.007.037 9.86-1.669Zm.018.116a5.61 5.61 0 0 0-.751-2.128l-8.568 5.157a4.39 4.39 0 0 1-.588-1.666l9.907-1.363Zm-.751-2.128a5.62 5.62 0 0 0-1.512-1.648l-5.878 8.09a4.38 4.38 0 0 1-1.178-1.285l8.568-5.157Zm-1.512-1.648a5.63 5.63 0 0 0-2.015-.924l-2.299 9.732a4.37 4.37 0 0 1-1.564-.718l5.878-8.09Zm-2.015-.924a5.635 5.635 0 0 0-2.206-.077l1.616 9.868a4.364 4.364 0 0 1-1.709-.06l2.299-9.731ZM9.71 9.979a5.632 5.632 0 0 0-2.071.78l5.295 8.483a4.369 4.369 0 0 1-1.608.605L9.711 9.98Zm-2.071.78a5.62 5.62 0 0 0-1.622 1.535l8.18 5.752c-.34.482-.77.888-1.263 1.196L7.64 10.759Zm-1.622 1.535a5.61 5.61 0 0 0-.9 2.066l9.784 2.07a4.392 4.392 0 0 1-.704 1.616l-8.18-5.752Zm-.9 2.066a5.606 5.606 0 0 0-.012 2.263l9.805-1.967a4.393 4.393 0 0 1-.01 1.773L5.119 14.36Zm-.04 2.114.007.037 9.86-1.67-.006-.036-9.86 1.669Zm.009.045a7.777 7.777 0 0 0 2.692 4.665l6.399-7.685c.395.329.674.799.765 1.334L5.087 16.52Zm2.692 4.665A7.856 7.856 0 0 0 12.807 23l-.002-10c.492 0 .979.17 1.373.499l-6.399 7.685ZM12.804 23a7.84 7.84 0 0 0 5.498-2.244l-7.008-7.133A2.16 2.16 0 0 1 12.807 13l-.004 10Zm5.498-2.244a7.753 7.753 0 0 0 2.323-5.516l-10-.018c.001-.615.25-1.189.668-1.6l7.009 7.134Zm2.323-5.525c0-1.61-.498-3.113-1.339-4.35l-8.27 5.623a2.274 2.274 0 0 1-.391-1.273h10Zm-5.474 3.461h1.724v-10h-1.724v10Zm1.724 0a8.15 8.15 0 0 0 5.718-2.338l-7.016-7.126a1.85 1.85 0 0 1 1.298-.536v10Zm5.718-2.338A8.053 8.053 0 0 0 25 10.615H15c0-.535.217-1.032.577-1.387l7.016 7.126ZM25 10.615c0-2.167-.875-4.23-2.407-5.738l-7.016 7.125A1.947 1.947 0 0 1 15 10.615h10Zm-2.407-5.738a8.15 8.15 0 0 0-5.718-2.339v10a1.85 1.85 0 0 1-1.298-.536l7.016-7.125Z" mask="url(#a)"/>
    </symbol>

    <symbol id="icon-transmission"   viewBox="0 0 17 18" fill="none">
        <path d="M13.1667 8.16667H14.4167C14.7482 8.16667 15.0661 8.03497 15.3006 7.80055C15.535 7.56613 15.6667 7.24819 15.6667 6.91667C15.6667 6.58515 15.535 6.2672 15.3006 6.03278C15.0661 5.79836 14.7482 5.66667 14.4167 5.66667H13.1667V9.83333M13.1667 13.1667V16.5H14C14.442 16.5 14.866 16.3244 15.1785 16.0118C15.4911 15.6993 15.6667 15.2754 15.6667 14.8333C15.6667 14.3913 15.4911 13.9674 15.1785 13.6548C14.866 13.3423 14.442 13.1667 14 13.1667H13.1667ZM1.5 3.16667C1.5 3.60869 1.67559 4.03262 1.98816 4.34518C2.30072 4.65774 2.72464 4.83333 3.16667 4.83333C3.60869 4.83333 4.03262 4.65774 4.34518 4.34518C4.65774 4.03262 4.83333 3.60869 4.83333 3.16667C4.83333 2.72464 4.65774 2.30072 4.34518 1.98816C4.03262 1.67559 3.60869 1.5 3.16667 1.5C2.72464 1.5 2.30072 1.67559 1.98816 1.98816C1.67559 2.30072 1.5 2.72464 1.5 3.16667Z" stroke="#101828" stroke-width="1.5" stroke-linecap="round" stroke-linejoin="round"/>
        <path d="M3.16663 4.83331V7.33331C3.16663 7.55433 3.25442 7.76629 3.4107 7.92257C3.56698 8.07885 3.77895 8.16665 3.99996 8.16665H6.49996M6.49996 8.16665V14C6.49996 14.221 6.58776 14.433 6.74404 14.5892C6.90032 14.7455 7.11228 14.8333 7.33329 14.8333H9.83329M6.49996 8.16665H9.83329" stroke="#101828" stroke-width="1.5" stroke-linecap="round" stroke-linejoin="round"/>
    </symbol>

    <symbol id="icon-adults"   viewBox="0 0 20 14" fill="none">
        <path d="M5.66666 12.0833H2.91666C2.74999 12.0833 2.66666 12 2.58333 11.9166C2.49999 11.8333 2.41666 11.6666 2.49999 11.5C2.99999 10.0833 4.24999 9.24998 5.66666 9.24998C7.41666 9.24998 8.83333 7.74998 8.83333 5.99998C8.83333 4.24998 7.41666 2.58331 5.66666 2.58331C3.91666 2.58331 2.49999 4.08331 2.49999 5.91665C2.49999 6.74998 2.83333 7.58331 3.33333 8.16665C2.24999 8.74998 1.41666 9.66665 0.91666 10.9166C0.749994 11.5 0.833327 12.25 1.24999 12.8333C1.66666 13.4166 2.24999 13.75 2.91666 13.75H5.66666C6.16666 13.75 6.49999 13.4166 6.49999 12.9166C6.49999 12.4166 6.16666 12.0833 5.66666 12.0833ZM4.16666 5.91665C4.16666 4.99998 4.83333 4.33331 5.66666 4.33331C6.49999 4.33331 7.16666 5.08331 7.16666 5.91665C7.16666 6.83331 6.49999 7.49998 5.66666 7.49998C4.83333 7.49998 4.16666 6.74998 4.16666 5.91665Z" fill="#101828"/>
        <path d="M19.0833 10.4167C18.5 8.83333 17.3333 7.66667 16 7C16.75 6.33333 17.1666 5.33333 17.1666 4.16667C17.1666 2 15.5 0.25 13.5 0.25C11.5 0.25 9.83331 2 9.83331 4.16667C9.83331 5.25 10.25 6.25 11 7C9.66664 7.66667 8.49998 8.83333 7.91664 10.4167C7.49998 11.1667 7.66664 12 8.08331 12.6667C8.49998 13.3333 9.24998 13.6667 9.99998 13.6667H16.9166C17.6666 13.6667 18.4166 13.25 18.8333 12.6667C19.3333 12 19.4166 11.1667 19.0833 10.4167ZM11.4166 4.25C11.4166 3 12.3333 2 13.4166 2C14.5 2 15.4166 3 15.4166 4.25C15.4166 5.5 14.5 6.5 13.4166 6.5C12.3333 6.5 11.4166 5.41667 11.4166 4.25ZM17.4166 11.75C17.3333 11.8333 17.1666 12.0833 16.9166 12.0833H9.99998C9.66664 12.0833 9.49998 11.8333 9.49998 11.75C9.41664 11.6667 9.24998 11.3333 9.41665 11C10.0833 9.25 11.75 8.08333 13.5 8.08333C15.25 8.08333 16.9166 9.25 17.5833 11C17.6666 11.3333 17.5 11.6667 17.4166 11.75Z" fill="#101828"/>
    </symbol>

    <symbol id="icon-star"   viewBox="0 0 16 16" fill="none">
        <path d="M6.20021 4.69703L8 1.28579L9.79979 4.69703C9.95896 4.9987 10.2491 5.20947 10.5851 5.26762L14.3856 5.92519L11.6975 8.69103C11.4598 8.93563 11.3489 9.27666 11.3975 9.61427L11.9465 13.4319L8.48537 11.7301C8.17929 11.5795 7.82071 11.5796 7.51463 11.7301L4.05348 13.4319L4.6025 9.61427C4.65105 9.27666 4.54024 8.93563 4.30252 8.69103L1.6144 5.92519L5.41486 5.26762C5.75095 5.20947 6.04104 4.9987 6.20021 4.69703ZM14.5177 5.78928L14.5175 5.78947L14.5177 5.78928ZM3.8834 13.5155C3.88344 13.5155 3.88349 13.5155 3.88353 13.5155L3.8834 13.5155Z" fill="#FFC531" stroke="#FFC531" stroke-width="1.2"/>
    </symbol>

    <symbol id="icon-map-pin"   viewBox="0 0 16 16" fill="none">
        <path d="M14 6.66669C14 11.3334 8 15.3334 8 15.3334C8 15.3334 2 11.3334 2 6.66669C2 5.07539 2.63214 3.54926 3.75736 2.42405C4.88258 1.29883 6.4087 0.666687 8 0.666687C9.5913 0.666687 11.1174 1.29883 12.2426 2.42405C13.3679 3.54926 14 5.07539 14 6.66669Z" stroke="#101828" stroke-width="1.3" stroke-linecap="round" stroke-linejoin="round"/>
        <path d="M8 8.66669C9.10457 8.66669 10 7.77126 10 6.66669C10 5.56212 9.10457 4.66669 8 4.66669C6.89543 4.66669 6 5.56212 6 6.66669C6 7.77126 6.89543 8.66669 8 8.66669Z" stroke="#101828" stroke-width="1.3" stroke-linecap="round" stroke-linejoin="round"/>
    </symbol>

    <symbol id="icon-heart"   viewBox="0 0 25 22">
        <path d="M21.3401 3.60999C20.8294 3.099 20.2229 2.69364 19.5555 2.41708C18.888 2.14052 18.1726 1.99817 17.4501 1.99817C16.7276 1.99817 16.0122 2.14052 15.3448 2.41708C14.6773 2.69364 14.0709 3.099 13.5601 3.60999L12.5001 4.66999L11.4401 3.60999C10.4084 2.5783 9.00915 1.9987 7.55012 1.9987C6.09108 1.9987 4.69181 2.5783 3.66012 3.60999C2.62843 4.64169 2.04883 6.04096 2.04883 7.49999C2.04883 8.95903 2.62843 10.3583 3.66012 11.39L4.72012 12.45L12.5001 20.23L20.2801 12.45L21.3401 11.39C21.8511 10.8792 22.2565 10.2728 22.533 9.60535C22.8096 8.93789 22.9519 8.22248 22.9519 7.49999C22.9519 6.77751 22.8096 6.0621 22.533 5.39464C22.2565 4.72718 21.8511 4.12075 21.3401 3.60999Z" stroke-width="2.3" stroke-linecap="round" stroke-linejoin="round"/>
    </symbol>

    <symbol id="icon-tv" viewBox="0 0 26 30" fill="none">
        <path d="M21 25H5C2.784 25 1 23.216 1 21V11C1 8.784 2.784 7 5 7H21C23.216 7 25 8.784 25 11V21C25 23.216 23.216 25 21 25Z" stroke="#101828" stroke-width="1.8" stroke-linecap="round" stroke-linejoin="round"/>
        <path d="M9 29H17" stroke="#101828" stroke-width="1.8" stroke-linecap="round" stroke-linejoin="round"/>
        <path d="M13 7L19 1" stroke="#101828" stroke-width="1.8" stroke-linecap="round" stroke-linejoin="round"/>
        <path d="M13 7L7 1" stroke="#101828" stroke-width="1.8" stroke-linecap="round" stroke-linejoin="round"/>
    </symbol>

    <symbol id="icon-van" viewBox="0 0 40 28" fill="none">
        <path d="M2.28197 1.57469H13.14C13.2318 1.57469 13.318 1.53975 13.3831 1.47627L14.4262 0.45863C14.7294 0.162883 15.1324 0 15.5612 0H32.0257C32.7924 0 33.5042 0.371529 33.9299 0.994024L35.9032 3.88162C36.1831 4.29153 36.2088 4.81561 35.9707 5.25012C35.7327 5.68464 35.2706 5.95431 34.7657 5.95431H26.2799V6.79086H30.626C31.7781 6.79086 32.8146 7.45863 33.2666 8.49251L35.8113 14.311L38.0404 15.181C39.2308 15.6456 40 16.7537 40 18.0046V23.393C40 24.1966 39.3296 24.8506 38.5059 24.8506H35.9122C35.6106 26.6344 34.0187 28 32.1059 28C30.1932 28 28.6013 26.6344 28.2996 24.8506H14.1216C13.8199 26.6344 12.228 28 10.3153 28C8.40252 28 6.81059 26.6344 6.50895 24.8506H1.32812C0.595715 24.8506 0 24.2695 0 23.5549V3.80091C0 2.57315 1.02345 1.57469 2.28197 1.57469ZM32.1059 26.7698C33.5385 26.7698 34.7037 25.633 34.7037 24.2355C34.7037 22.838 33.5385 21.7012 32.1059 21.7012C30.6734 21.7012 29.5082 22.838 29.5082 24.2355C29.5082 25.633 30.6734 26.7698 32.1059 26.7698ZM26.2799 23.6204H28.2986C28.3037 23.5894 28.3102 23.5594 28.3163 23.5289C28.3203 23.5082 28.3238 23.4875 28.3284 23.4669C28.3385 23.4186 28.3501 23.3709 28.3622 23.3232C28.3647 23.3133 28.3667 23.3035 28.3697 23.2936C28.3849 23.2361 28.4015 23.1795 28.4192 23.1234C28.4242 23.1071 28.4303 23.0909 28.4358 23.0742C28.4489 23.0348 28.4625 22.9954 28.4767 22.9566C28.4847 22.9359 28.4928 22.9152 28.5014 22.8946C28.5145 22.8606 28.5276 22.8266 28.5422 22.7932C28.5513 22.771 28.5614 22.7494 28.5715 22.7277C28.5856 22.6957 28.5997 22.6647 28.6149 22.6333C28.626 22.6111 28.6366 22.5895 28.6482 22.5673C28.6633 22.5373 28.6794 22.5068 28.6956 22.4773C28.7072 22.4556 28.7193 22.434 28.7314 22.4123C28.748 22.3828 28.7657 22.3533 28.7834 22.3242C28.796 22.3035 28.8086 22.2829 28.8212 22.2622C28.8404 22.2327 28.8595 22.2037 28.8792 22.1741C28.8923 22.1549 28.9049 22.1357 28.918 22.117C28.9397 22.086 28.9624 22.0555 28.9856 22.025C28.9972 22.0088 29.0088 21.9925 29.0209 21.9768C29.0522 21.9364 29.084 21.8976 29.1163 21.8587C29.1208 21.8528 29.1253 21.8469 29.1304 21.841C29.1677 21.7967 29.2066 21.7534 29.2459 21.7111C29.258 21.6978 29.2706 21.6855 29.2832 21.6727C29.311 21.6437 29.3387 21.6146 29.3675 21.5861C29.3836 21.5703 29.4003 21.5551 29.4164 21.5398C29.4421 21.5152 29.4683 21.4906 29.4951 21.4665C29.5127 21.4508 29.5309 21.435 29.5491 21.4193C29.5753 21.3966 29.6015 21.3745 29.6282 21.3523L29.6858 21.3066C29.7125 21.2854 29.7397 21.2647 29.767 21.2441C29.7866 21.2293 29.8068 21.2146 29.827 21.2003C29.8547 21.1801 29.883 21.1609 29.9117 21.1412C29.9319 21.1279 29.9521 21.1142 29.9723 21.1009C30.002 21.0812 30.0328 21.0625 30.0631 21.0438C30.0827 21.032 30.1024 21.0197 30.1226 21.0079C30.1559 20.9882 30.1902 20.9695 30.2245 20.9508C30.2421 20.941 30.2593 20.9311 30.2764 20.9218C30.3253 20.8962 30.3743 20.8716 30.4237 20.8479C30.4277 20.8465 30.4313 20.8445 30.4353 20.8425C30.4888 20.8174 30.5433 20.7933 30.5977 20.7707C30.6154 20.7633 30.6335 20.7569 30.6512 20.7495C30.6885 20.7348 30.7264 20.72 30.7647 20.7057C30.7864 20.6979 30.8086 20.691 30.8303 20.6831C30.8651 20.6713 30.8999 20.6595 30.9352 20.6486C30.9589 20.6413 30.9826 20.6344 31.0068 20.6275C31.0411 20.6176 31.0754 20.6078 31.1097 20.5989C31.1344 20.5925 31.1591 20.5862 31.1844 20.5802C31.2187 20.5719 31.253 20.5645 31.2878 20.5571C31.313 20.5517 31.3382 20.5463 31.3639 20.5414C31.3992 20.535 31.4346 20.5286 31.4704 20.5232C31.4956 20.5187 31.5203 20.5148 31.546 20.5114C31.5828 20.5059 31.6202 20.5015 31.658 20.4971C31.6817 20.4946 31.7059 20.4912 31.7301 20.4892C31.7715 20.4853 31.8134 20.4823 31.8552 20.4799C31.8759 20.4784 31.8961 20.4764 31.9168 20.4759C31.9798 20.4725 32.0424 20.471 32.1059 20.471C32.1695 20.471 32.232 20.4725 32.2951 20.4759C32.3158 20.4764 32.3359 20.4784 32.3566 20.4799C32.3985 20.4823 32.4404 20.4853 32.4817 20.4892C32.5059 20.4912 32.5301 20.4946 32.5538 20.4971C32.5917 20.5015 32.629 20.5059 32.6658 20.5114C32.6916 20.5148 32.7163 20.5187 32.7415 20.5232C32.7773 20.5286 32.8126 20.535 32.8479 20.5414C32.8736 20.5463 32.8989 20.5517 32.9241 20.5571C32.9589 20.5645 32.9932 20.5719 33.0275 20.5802C33.0527 20.5862 33.0774 20.5925 33.1021 20.5989C33.1364 20.6078 33.1707 20.6176 33.205 20.6275C33.2293 20.6344 33.253 20.6413 33.2767 20.6486C33.312 20.6595 33.3468 20.6713 33.3816 20.6831C33.4033 20.691 33.4255 20.6979 33.4472 20.7057C33.4855 20.72 33.5233 20.7348 33.5607 20.7495C33.5783 20.7569 33.5965 20.7633 33.6141 20.7707C33.6686 20.7933 33.7231 20.8174 33.7765 20.8425C33.7806 20.8445 33.7841 20.8465 33.7881 20.8479C33.8376 20.8716 33.8865 20.8962 33.9354 20.9218C33.9526 20.9311 33.9697 20.941 33.9874 20.9508C34.0217 20.9695 34.056 20.9882 34.0893 21.0079C34.1095 21.0197 34.1291 21.032 34.1488 21.0438C34.1791 21.0625 34.2098 21.0812 34.2396 21.1009C34.2598 21.1142 34.2799 21.1279 34.3001 21.1412C34.3289 21.1609 34.3571 21.1801 34.3849 21.2003C34.405 21.2146 34.4252 21.2293 34.4449 21.2441C34.4721 21.2647 34.4994 21.2854 34.5261 21.3066L34.5836 21.3523C34.6103 21.3745 34.6366 21.3966 34.6628 21.4193C34.681 21.435 34.6991 21.4508 34.7168 21.4665C34.7435 21.4906 34.7697 21.5152 34.7955 21.5398C34.8116 21.5551 34.8282 21.5703 34.8444 21.5861C34.8731 21.6146 34.9009 21.6437 34.9286 21.6727C34.9412 21.6855 34.9538 21.6978 34.966 21.7111C35.0053 21.7534 35.0441 21.7967 35.0815 21.841C35.0865 21.8469 35.091 21.8528 35.0956 21.8587C35.1279 21.8976 35.1596 21.9364 35.1909 21.9768C35.203 21.9925 35.2146 22.0088 35.2262 22.025C35.2494 22.0555 35.2721 22.086 35.2938 22.117C35.3069 22.1357 35.3195 22.1549 35.3327 22.1741C35.3523 22.2037 35.3715 22.2327 35.3907 22.2622C35.4033 22.2829 35.4159 22.3035 35.4285 22.3242C35.4462 22.3533 35.4638 22.3828 35.4805 22.4123C35.4926 22.434 35.5047 22.4556 35.5163 22.4773C35.5324 22.5068 35.5486 22.5373 35.5637 22.5673C35.5753 22.5895 35.5859 22.6111 35.597 22.6333C35.6121 22.6647 35.6262 22.6957 35.6404 22.7277C35.6504 22.7494 35.6605 22.771 35.6696 22.7932C35.6842 22.8266 35.6974 22.8606 35.7105 22.8946C35.719 22.9152 35.7271 22.9359 35.7352 22.9566C35.7493 22.9954 35.7629 23.0348 35.776 23.0742C35.7816 23.0909 35.7876 23.1071 35.7927 23.1234C35.8103 23.1795 35.827 23.2361 35.8421 23.2936C35.8451 23.3035 35.8472 23.3133 35.8497 23.3232C35.8618 23.3709 35.8734 23.4186 35.8835 23.4669C35.888 23.4875 35.8916 23.5082 35.8956 23.5289C35.9016 23.5594 35.9082 23.5894 35.9132 23.6204H38.5059C38.6346 23.6204 38.739 23.5185 38.739 23.393V20.8155H37.7554V19.5852H38.739V18.0046C38.739 17.2596 38.281 16.5997 37.5723 16.3232L35.2126 15.4025H26.2799V23.6204ZM26.2799 14.1722H34.3798L32.1069 8.97526C31.8532 8.39557 31.2721 8.02109 30.626 8.02109H26.2799V14.1722ZM10.3153 26.7698C11.7478 26.7698 12.913 25.633 12.913 24.2355C12.913 22.838 11.7478 21.7012 10.3153 21.7012C10.2704 21.7012 10.226 21.7022 10.1816 21.7047C8.98815 21.7637 8.00454 22.6131 7.77049 23.7252C7.76192 23.7665 7.75385 23.8084 7.74729 23.8502C7.73418 23.9338 7.7256 24.019 7.72106 24.1051C7.71854 24.1484 7.71753 24.1917 7.71753 24.2355C7.71753 25.633 8.88272 26.7698 10.3153 26.7698ZM1.26103 19.5852H2.24464V20.8155H1.26103V23.5549C1.26103 23.5909 1.2913 23.6204 1.32812 23.6204H6.50795C6.51299 23.5899 6.51955 23.5599 6.5256 23.5298C6.52963 23.5087 6.53316 23.4875 6.5377 23.4664C6.54779 23.4191 6.55889 23.3724 6.571 23.3261C6.57402 23.3153 6.57604 23.304 6.57907 23.2931C6.5942 23.2361 6.61084 23.18 6.6285 23.1239C6.63404 23.1066 6.6401 23.0894 6.64565 23.0727C6.65876 23.0338 6.67188 22.9949 6.686 22.957C6.69407 22.9354 6.70265 22.9147 6.71072 22.8936C6.72383 22.8601 6.73745 22.8266 6.75107 22.7937C6.76066 22.771 6.77074 22.7489 6.78083 22.7268C6.79496 22.6957 6.80908 22.6647 6.82421 22.6337C6.8348 22.6111 6.84641 22.589 6.8575 22.5668C6.87263 22.5368 6.88827 22.5073 6.90442 22.4773C6.91652 22.4556 6.92862 22.434 6.94073 22.4123C6.95788 22.3828 6.97503 22.3537 6.99269 22.3247C7.00529 22.3036 7.01791 22.2829 7.03102 22.2622C7.04969 22.2327 7.06886 22.2037 7.08853 22.1751C7.10114 22.1554 7.11425 22.1357 7.12737 22.117C7.14906 22.086 7.17175 22.056 7.19395 22.026C7.20605 22.0093 7.21816 21.9925 7.23077 21.9763C7.26103 21.9374 7.29181 21.8991 7.32358 21.8612C7.32913 21.8543 7.33418 21.8474 7.33972 21.841C7.37756 21.7967 7.41589 21.7534 7.45523 21.7111C7.46784 21.6978 7.48045 21.685 7.49306 21.6717C7.52081 21.6427 7.54855 21.6141 7.5768 21.5861C7.59294 21.5703 7.60958 21.5551 7.62623 21.5393C7.65195 21.5147 7.67768 21.4906 7.70441 21.4665C7.72207 21.4508 7.74073 21.435 7.75889 21.4188C7.78461 21.3966 7.81084 21.3745 7.83758 21.3528C7.85675 21.3371 7.87592 21.3213 7.89559 21.3061C7.92182 21.2854 7.94905 21.2647 7.97629 21.2441C7.99596 21.2293 8.01614 21.2146 8.03632 21.2003C8.06406 21.1801 8.09231 21.1609 8.12055 21.1417C8.14124 21.1279 8.16141 21.1142 8.18159 21.1009C8.21135 21.0812 8.24161 21.0625 8.27188 21.0443C8.29206 21.032 8.31173 21.0197 8.3319 21.0079C8.36519 20.9882 8.39899 20.9695 8.43329 20.9508C8.45095 20.941 8.4681 20.9311 8.48625 20.9218C8.53417 20.8962 8.5826 20.8721 8.63203 20.8489C8.63607 20.847 8.6401 20.8445 8.64464 20.8425C8.69811 20.8174 8.75258 20.7933 8.80706 20.7707C8.82471 20.7633 8.84287 20.7569 8.86053 20.7495C8.89836 20.7348 8.93569 20.72 8.97402 20.7057C8.99571 20.6979 9.0179 20.691 9.0401 20.6831C9.0744 20.6713 9.10921 20.6595 9.14451 20.6486C9.16822 20.6413 9.19243 20.6344 9.21614 20.6275C9.25044 20.6176 9.28474 20.6078 9.31904 20.5989C9.34376 20.5925 9.36847 20.5862 9.39369 20.5802C9.42799 20.5719 9.4623 20.5645 9.4971 20.5571C9.52232 20.5517 9.54754 20.5463 9.57327 20.5414C9.60857 20.535 9.64388 20.5286 9.6797 20.5232C9.70492 20.5187 9.72964 20.5148 9.75536 20.5114C9.79218 20.5059 9.82951 20.5015 9.86734 20.4971C9.89105 20.4946 9.91526 20.4912 9.93947 20.4892C9.98083 20.4853 10.0227 20.4823 10.0646 20.4799C10.0852 20.4784 10.1054 20.4764 10.1261 20.4759C10.1892 20.4725 10.2517 20.471 10.3153 20.471C10.3788 20.471 10.4414 20.4725 10.5044 20.4759C10.5251 20.4764 10.5453 20.4784 10.566 20.4799C10.6078 20.4823 10.6497 20.4853 10.691 20.4892C10.7153 20.4912 10.7395 20.4946 10.7632 20.4971C10.801 20.5015 10.8383 20.5059 10.8752 20.5114C10.9009 20.5148 10.9256 20.5187 10.9508 20.5232C10.9866 20.5286 11.0219 20.535 11.0573 20.5414C11.083 20.5463 11.1082 20.5517 11.1334 20.5571C11.1682 20.5645 11.2025 20.5719 11.2368 20.5802C11.262 20.5862 11.2868 20.5925 11.3115 20.5989C11.3458 20.6078 11.3801 20.6176 11.4144 20.6275C11.4381 20.6344 11.4623 20.6413 11.486 20.6486C11.5213 20.6595 11.5561 20.6713 11.5904 20.6831C11.6126 20.691 11.6348 20.6979 11.6565 20.7057C11.6948 20.72 11.7322 20.7348 11.77 20.7495C11.7876 20.7569 11.8058 20.7633 11.8235 20.7707C11.8779 20.7933 11.9324 20.8174 11.9859 20.8425C11.9904 20.8445 11.9945 20.8465 11.9985 20.8489C12.0479 20.8721 12.0963 20.8962 12.1443 20.9218C12.1624 20.9311 12.1796 20.941 12.1972 20.9508C12.231 20.9695 12.2653 20.9882 12.2986 21.0079C12.3188 21.0197 12.3385 21.032 12.3586 21.0443C12.3889 21.0625 12.4192 21.0812 12.4489 21.1009C12.4691 21.1142 12.4893 21.1279 12.51 21.1417C12.5382 21.1609 12.5665 21.1801 12.5942 21.2003C12.6144 21.2146 12.6346 21.2293 12.6542 21.2441C12.6815 21.2647 12.7087 21.2854 12.7349 21.3061C12.7546 21.3213 12.7738 21.3371 12.7929 21.3528C12.8197 21.3745 12.8459 21.3966 12.8716 21.4193C12.8898 21.435 12.9084 21.4508 12.9261 21.4665C12.9528 21.4906 12.9786 21.5152 13.0048 21.5398C13.0209 21.5551 13.0376 21.5703 13.0537 21.5861C13.082 21.6141 13.1102 21.6432 13.138 21.6722C13.1501 21.685 13.1632 21.6978 13.1753 21.7111C13.2146 21.7534 13.253 21.7967 13.2908 21.841C13.2958 21.8474 13.3009 21.8538 13.3059 21.8597C13.3377 21.8981 13.3695 21.9369 13.3997 21.9768C13.4124 21.9925 13.424 22.0088 13.4361 22.025C13.4588 22.0555 13.4815 22.086 13.5032 22.117C13.5163 22.1357 13.5289 22.1554 13.542 22.1746C13.5617 22.2037 13.5808 22.2327 13.5995 22.2622C13.6126 22.2829 13.6252 22.3035 13.6378 22.3242C13.6555 22.3533 13.6731 22.3828 13.6898 22.4123C13.7019 22.434 13.714 22.4556 13.7256 22.4773C13.7422 22.5068 13.7579 22.5373 13.7735 22.5673C13.7846 22.5895 13.7952 22.6111 13.8063 22.6333C13.8214 22.6647 13.8356 22.6962 13.8497 22.7277C13.8598 22.7494 13.8699 22.771 13.8789 22.7932C13.8936 22.8266 13.9067 22.8606 13.9203 22.8946C13.9284 22.9152 13.9364 22.9359 13.9445 22.9566C13.9591 22.9959 13.9723 23.0353 13.9854 23.0751C13.9909 23.0914 13.997 23.1071 14.002 23.1234C14.0197 23.1795 14.0363 23.2366 14.052 23.2936C14.054 23.3025 14.056 23.3118 14.058 23.3207C14.0706 23.3694 14.0822 23.4181 14.0928 23.4673C14.0974 23.487 14.1009 23.5072 14.1044 23.5274C14.1105 23.5584 14.117 23.5889 14.1226 23.6204H25.0189V5.33919C25.0189 4.99965 25.3014 4.72408 25.6494 4.72408H34.7657C34.7813 4.72408 34.8293 4.72408 34.859 4.66946C34.8888 4.61533 34.8625 4.57645 34.8535 4.56415L32.8807 1.67656C32.6895 1.39705 32.3702 1.23023 32.0257 1.23023H15.5612C15.4694 1.23023 15.3831 1.26517 15.318 1.32865L14.2749 2.34629C13.9718 2.64204 13.5687 2.80492 13.14 2.80492H2.28197C1.71904 2.80492 1.26103 3.25174 1.26103 3.80091V19.5852Z" fill="#101828"/>
        <path d="M4.84372 6.2981H12.5562C13.4475 6.2981 14.1729 7.00572 14.1729 7.87525V11.4631C14.1729 12.3326 13.4475 13.0402 12.5562 13.0402H4.84321C3.95192 13.0402 3.22657 12.3326 3.22657 11.4631V7.87525C3.22707 7.00572 3.95242 6.2981 4.84372 6.2981ZM4.48811 11.4626C4.48811 11.6535 4.6475 11.8095 4.84372 11.8095H12.5562C12.7524 11.8095 12.9118 11.654 12.9118 11.4626V7.87476C12.9118 7.68382 12.7524 7.52783 12.5562 7.52783H4.84321C4.647 7.52783 4.4876 7.68333 4.4876 7.87476L4.48811 11.4626Z" fill="#101828"/>
    </symbol>

    <symbol id="icon-integrated" viewBox="0 0 40 29" fill="none">
        <path d="M2.28197 2.07469H13.14C13.2318 2.07469 13.318 2.03975 13.3831 1.97627L14.4262 0.95863C14.7294 0.662883 15.1324 0.5 15.5612 0.5H32.0257C32.7924 0.5 33.5042 0.871529 33.9299 1.49402L35.9032 4.38162C36.1831 4.79153 36.2088 5.31561 35.9707 5.75012C35.7327 6.18464 35.2706 6.45431 34.7657 6.45431H26.2799V7.29086H30.626C31.7781 7.29086 32.8146 7.95863 33.2666 8.99251L35.8113 14.811L38.0404 15.681C39.2308 16.1456 40 17.2537 40 18.5046V23.893C40 24.6966 39.3296 25.3506 38.5059 25.3506H35.9122C35.6106 27.1344 34.0187 28.5 32.1059 28.5C30.1932 28.5 28.6013 27.1344 28.2996 25.3506H14.1216C13.8199 27.1344 12.228 28.5 10.3153 28.5C8.40252 28.5 6.81059 27.1344 6.50895 25.3506H1.32812C0.595715 25.3506 0 24.7695 0 24.0549V4.30091C0 3.07315 1.02345 2.07469 2.28197 2.07469ZM32.1059 27.2698C33.5385 27.2698 34.7037 26.133 34.7037 24.7355C34.7037 23.338 33.5385 22.2012 32.1059 22.2012C30.6734 22.2012 29.5082 23.338 29.5082 24.7355C29.5082 26.133 30.6734 27.2698 32.1059 27.2698ZM26.2799 24.1204H28.2986C28.3037 24.0894 28.3102 24.0594 28.3163 24.0289C28.3203 24.0082 28.3238 23.9875 28.3284 23.9669C28.3385 23.9186 28.3501 23.8709 28.3622 23.8232C28.3647 23.8133 28.3667 23.8035 28.3697 23.7936C28.3849 23.7361 28.4015 23.6795 28.4192 23.6234C28.4242 23.6071 28.4303 23.5909 28.4358 23.5742C28.4489 23.5348 28.4625 23.4954 28.4767 23.4566C28.4847 23.4359 28.4928 23.4152 28.5014 23.3946C28.5145 23.3606 28.5276 23.3266 28.5422 23.2932C28.5513 23.271 28.5614 23.2494 28.5715 23.2277C28.5856 23.1957 28.5997 23.1647 28.6149 23.1333C28.626 23.1111 28.6366 23.0895 28.6482 23.0673C28.6633 23.0373 28.6794 23.0068 28.6956 22.9773C28.7072 22.9556 28.7193 22.934 28.7314 22.9123C28.748 22.8828 28.7657 22.8533 28.7834 22.8242C28.796 22.8035 28.8086 22.7829 28.8212 22.7622C28.8404 22.7327 28.8595 22.7037 28.8792 22.6741C28.8923 22.6549 28.9049 22.6357 28.918 22.617C28.9397 22.586 28.9624 22.5555 28.9856 22.525C28.9972 22.5088 29.0088 22.4925 29.0209 22.4768C29.0522 22.4364 29.084 22.3976 29.1163 22.3587C29.1208 22.3528 29.1253 22.3469 29.1304 22.341C29.1677 22.2967 29.2066 22.2534 29.2459 22.2111C29.258 22.1978 29.2706 22.1855 29.2832 22.1727C29.311 22.1437 29.3387 22.1146 29.3675 22.0861C29.3836 22.0703 29.4003 22.0551 29.4164 22.0398C29.4421 22.0152 29.4683 21.9906 29.4951 21.9665C29.5127 21.9508 29.5309 21.935 29.5491 21.9193C29.5753 21.8966 29.6015 21.8745 29.6282 21.8523L29.6858 21.8066C29.7125 21.7854 29.7397 21.7647 29.767 21.7441C29.7866 21.7293 29.8068 21.7146 29.827 21.7003C29.8547 21.6801 29.883 21.6609 29.9117 21.6412C29.9319 21.6279 29.9521 21.6142 29.9723 21.6009C30.002 21.5812 30.0328 21.5625 30.0631 21.5438C30.0827 21.532 30.1024 21.5197 30.1226 21.5079C30.1559 21.4882 30.1902 21.4695 30.2245 21.4508C30.2421 21.441 30.2593 21.4311 30.2764 21.4218C30.3253 21.3962 30.3743 21.3716 30.4237 21.3479C30.4277 21.3465 30.4313 21.3445 30.4353 21.3425C30.4888 21.3174 30.5433 21.2933 30.5977 21.2707C30.6154 21.2633 30.6335 21.2569 30.6512 21.2495C30.6885 21.2348 30.7264 21.22 30.7647 21.2057C30.7864 21.1979 30.8086 21.191 30.8303 21.1831C30.8651 21.1713 30.8999 21.1595 30.9352 21.1486C30.9589 21.1413 30.9826 21.1344 31.0068 21.1275C31.0411 21.1176 31.0754 21.1078 31.1097 21.0989C31.1344 21.0925 31.1591 21.0862 31.1844 21.0802C31.2187 21.0719 31.253 21.0645 31.2878 21.0571C31.313 21.0517 31.3382 21.0463 31.3639 21.0414C31.3992 21.035 31.4346 21.0286 31.4704 21.0232C31.4956 21.0187 31.5203 21.0148 31.546 21.0114C31.5828 21.0059 31.6202 21.0015 31.658 20.9971C31.6817 20.9946 31.7059 20.9912 31.7301 20.9892C31.7715 20.9853 31.8134 20.9823 31.8552 20.9799C31.8759 20.9784 31.8961 20.9764 31.9168 20.9759C31.9798 20.9725 32.0424 20.971 32.1059 20.971C32.1695 20.971 32.232 20.9725 32.2951 20.9759C32.3158 20.9764 32.3359 20.9784 32.3566 20.9799C32.3985 20.9823 32.4404 20.9853 32.4817 20.9892C32.5059 20.9912 32.5301 20.9946 32.5538 20.9971C32.5917 21.0015 32.629 21.0059 32.6658 21.0114C32.6916 21.0148 32.7163 21.0187 32.7415 21.0232C32.7773 21.0286 32.8126 21.035 32.8479 21.0414C32.8736 21.0463 32.8989 21.0517 32.9241 21.0571C32.9589 21.0645 32.9932 21.0719 33.0275 21.0802C33.0527 21.0862 33.0774 21.0925 33.1021 21.0989C33.1364 21.1078 33.1707 21.1176 33.205 21.1275C33.2293 21.1344 33.253 21.1413 33.2767 21.1486C33.312 21.1595 33.3468 21.1713 33.3816 21.1831C33.4033 21.191 33.4255 21.1979 33.4472 21.2057C33.4855 21.22 33.5233 21.2348 33.5607 21.2495C33.5783 21.2569 33.5965 21.2633 33.6141 21.2707C33.6686 21.2933 33.7231 21.3174 33.7765 21.3425C33.7806 21.3445 33.7841 21.3465 33.7881 21.3479C33.8376 21.3716 33.8865 21.3962 33.9354 21.4218C33.9526 21.4311 33.9697 21.441 33.9874 21.4508C34.0217 21.4695 34.056 21.4882 34.0893 21.5079C34.1095 21.5197 34.1291 21.532 34.1488 21.5438C34.1791 21.5625 34.2098 21.5812 34.2396 21.6009C34.2598 21.6142 34.2799 21.6279 34.3001 21.6412C34.3289 21.6609 34.3571 21.6801 34.3849 21.7003C34.405 21.7146 34.4252 21.7293 34.4449 21.7441C34.4721 21.7647 34.4994 21.7854 34.5261 21.8066L34.5836 21.8523C34.6103 21.8745 34.6366 21.8966 34.6628 21.9193C34.681 21.935 34.6991 21.9508 34.7168 21.9665C34.7435 21.9906 34.7697 22.0152 34.7955 22.0398C34.8116 22.0551 34.8282 22.0703 34.8444 22.0861C34.8731 22.1146 34.9009 22.1437 34.9286 22.1727C34.9412 22.1855 34.9538 22.1978 34.966 22.2111C35.0053 22.2534 35.0441 22.2967 35.0815 22.341C35.0865 22.3469 35.091 22.3528 35.0956 22.3587C35.1279 22.3976 35.1596 22.4364 35.1909 22.4768C35.203 22.4925 35.2146 22.5088 35.2262 22.525C35.2494 22.5555 35.2721 22.586 35.2938 22.617C35.3069 22.6357 35.3195 22.6549 35.3327 22.6741C35.3523 22.7037 35.3715 22.7327 35.3907 22.7622C35.4033 22.7829 35.4159 22.8035 35.4285 22.8242C35.4462 22.8533 35.4638 22.8828 35.4805 22.9123C35.4926 22.934 35.5047 22.9556 35.5163 22.9773C35.5324 23.0068 35.5486 23.0373 35.5637 23.0673C35.5753 23.0895 35.5859 23.1111 35.597 23.1333C35.6121 23.1647 35.6262 23.1957 35.6404 23.2277C35.6504 23.2494 35.6605 23.271 35.6696 23.2932C35.6842 23.3266 35.6974 23.3606 35.7105 23.3946C35.719 23.4152 35.7271 23.4359 35.7352 23.4566C35.7493 23.4954 35.7629 23.5348 35.776 23.5742C35.7816 23.5909 35.7876 23.6071 35.7927 23.6234C35.8103 23.6795 35.827 23.7361 35.8421 23.7936C35.8451 23.8035 35.8472 23.8133 35.8497 23.8232C35.8618 23.8709 35.8734 23.9186 35.8835 23.9669C35.888 23.9875 35.8916 24.0082 35.8956 24.0289C35.9016 24.0594 35.9082 24.0894 35.9132 24.1204H38.5059C38.6346 24.1204 38.739 24.0185 38.739 23.893V21.3155H37.7554V20.0852H38.739V18.5046C38.739 17.7596 38.281 17.0997 37.5723 16.8232L35.2126 15.9025H26.2799V24.1204ZM26.2799 14.6722H34.3798L32.1069 9.47526C31.8532 8.89557 31.2721 8.52109 30.626 8.52109H26.2799V14.6722ZM10.3153 27.2698C11.7478 27.2698 12.913 26.133 12.913 24.7355C12.913 23.338 11.7478 22.2012 10.3153 22.2012C10.2704 22.2012 10.226 22.2022 10.1816 22.2047C8.98815 22.2637 8.00454 23.1131 7.77049 24.2252C7.76192 24.2665 7.75385 24.3084 7.74729 24.3502C7.73418 24.4338 7.7256 24.519 7.72106 24.6051C7.71854 24.6484 7.71753 24.6917 7.71753 24.7355C7.71753 26.133 8.88272 27.2698 10.3153 27.2698ZM1.26103 20.0852H2.24464V21.3155H1.26103V24.0549C1.26103 24.0909 1.2913 24.1204 1.32812 24.1204H6.50795C6.51299 24.0899 6.51955 24.0599 6.5256 24.0298C6.52963 24.0087 6.53316 23.9875 6.5377 23.9664C6.54779 23.9191 6.55889 23.8724 6.571 23.8261C6.57402 23.8153 6.57604 23.804 6.57907 23.7931C6.5942 23.7361 6.61084 23.68 6.6285 23.6239C6.63404 23.6066 6.6401 23.5894 6.64565 23.5727C6.65876 23.5338 6.67188 23.4949 6.686 23.457C6.69407 23.4354 6.70265 23.4147 6.71072 23.3936C6.72383 23.3601 6.73745 23.3266 6.75107 23.2937C6.76066 23.271 6.77074 23.2489 6.78083 23.2268C6.79496 23.1957 6.80908 23.1647 6.82421 23.1337C6.8348 23.1111 6.84641 23.089 6.8575 23.0668C6.87263 23.0368 6.88827 23.0073 6.90442 22.9773C6.91652 22.9556 6.92862 22.934 6.94073 22.9123C6.95788 22.8828 6.97503 22.8537 6.99269 22.8247C7.00529 22.8036 7.01791 22.7829 7.03102 22.7622C7.04969 22.7327 7.06886 22.7037 7.08853 22.6751C7.10114 22.6554 7.11425 22.6357 7.12737 22.617C7.14906 22.586 7.17175 22.556 7.19395 22.526C7.20605 22.5093 7.21816 22.4925 7.23077 22.4763C7.26103 22.4374 7.29181 22.3991 7.32358 22.3612C7.32913 22.3543 7.33418 22.3474 7.33972 22.341C7.37756 22.2967 7.41589 22.2534 7.45523 22.2111C7.46784 22.1978 7.48045 22.185 7.49306 22.1717C7.52081 22.1427 7.54855 22.1141 7.5768 22.0861C7.59294 22.0703 7.60958 22.0551 7.62623 22.0393C7.65195 22.0147 7.67768 21.9906 7.70441 21.9665C7.72207 21.9508 7.74073 21.935 7.75889 21.9188C7.78461 21.8966 7.81084 21.8745 7.83758 21.8528C7.85675 21.8371 7.87592 21.8213 7.89559 21.8061C7.92182 21.7854 7.94905 21.7647 7.97629 21.7441C7.99596 21.7293 8.01614 21.7146 8.03632 21.7003C8.06406 21.6801 8.09231 21.6609 8.12055 21.6417C8.14124 21.6279 8.16141 21.6142 8.18159 21.6009C8.21135 21.5812 8.24161 21.5625 8.27188 21.5443C8.29206 21.532 8.31173 21.5197 8.3319 21.5079C8.36519 21.4882 8.39899 21.4695 8.43329 21.4508C8.45095 21.441 8.4681 21.4311 8.48625 21.4218C8.53417 21.3962 8.5826 21.3721 8.63203 21.3489C8.63607 21.347 8.6401 21.3445 8.64464 21.3425C8.69811 21.3174 8.75258 21.2933 8.80706 21.2707C8.82471 21.2633 8.84287 21.2569 8.86053 21.2495C8.89836 21.2348 8.93569 21.22 8.97402 21.2057C8.99571 21.1979 9.0179 21.191 9.0401 21.1831C9.0744 21.1713 9.10921 21.1595 9.14451 21.1486C9.16822 21.1413 9.19243 21.1344 9.21614 21.1275C9.25044 21.1176 9.28474 21.1078 9.31904 21.0989C9.34376 21.0925 9.36847 21.0862 9.39369 21.0802C9.42799 21.0719 9.4623 21.0645 9.4971 21.0571C9.52232 21.0517 9.54754 21.0463 9.57327 21.0414C9.60857 21.035 9.64388 21.0286 9.6797 21.0232C9.70492 21.0187 9.72964 21.0148 9.75536 21.0114C9.79218 21.0059 9.82951 21.0015 9.86734 20.9971C9.89105 20.9946 9.91526 20.9912 9.93947 20.9892C9.98083 20.9853 10.0227 20.9823 10.0646 20.9799C10.0852 20.9784 10.1054 20.9764 10.1261 20.9759C10.1892 20.9725 10.2517 20.971 10.3153 20.971C10.3788 20.971 10.4414 20.9725 10.5044 20.9759C10.5251 20.9764 10.5453 20.9784 10.566 20.9799C10.6078 20.9823 10.6497 20.9853 10.691 20.9892C10.7153 20.9912 10.7395 20.9946 10.7632 20.9971C10.801 21.0015 10.8383 21.0059 10.8752 21.0114C10.9009 21.0148 10.9256 21.0187 10.9508 21.0232C10.9866 21.0286 11.0219 21.035 11.0573 21.0414C11.083 21.0463 11.1082 21.0517 11.1334 21.0571C11.1682 21.0645 11.2025 21.0719 11.2368 21.0802C11.262 21.0862 11.2868 21.0925 11.3115 21.0989C11.3458 21.1078 11.3801 21.1176 11.4144 21.1275C11.4381 21.1344 11.4623 21.1413 11.486 21.1486C11.5213 21.1595 11.5561 21.1713 11.5904 21.1831C11.6126 21.191 11.6348 21.1979 11.6565 21.2057C11.6948 21.22 11.7322 21.2348 11.77 21.2495C11.7876 21.2569 11.8058 21.2633 11.8235 21.2707C11.8779 21.2933 11.9324 21.3174 11.9859 21.3425C11.9904 21.3445 11.9945 21.3465 11.9985 21.3489C12.0479 21.3721 12.0963 21.3962 12.1443 21.4218C12.1624 21.4311 12.1796 21.441 12.1972 21.4508C12.231 21.4695 12.2653 21.4882 12.2986 21.5079C12.3188 21.5197 12.3385 21.532 12.3586 21.5443C12.3889 21.5625 12.4192 21.5812 12.4489 21.6009C12.4691 21.6142 12.4893 21.6279 12.51 21.6417C12.5382 21.6609 12.5665 21.6801 12.5942 21.7003C12.6144 21.7146 12.6346 21.7293 12.6542 21.7441C12.6815 21.7647 12.7087 21.7854 12.7349 21.8061C12.7546 21.8213 12.7738 21.8371 12.7929 21.8528C12.8197 21.8745 12.8459 21.8966 12.8716 21.9193C12.8898 21.935 12.9084 21.9508 12.9261 21.9665C12.9528 21.9906 12.9786 22.0152 13.0048 22.0398C13.0209 22.0551 13.0376 22.0703 13.0537 22.0861C13.082 22.1141 13.1102 22.1432 13.138 22.1722C13.1501 22.185 13.1632 22.1978 13.1753 22.2111C13.2146 22.2534 13.253 22.2967 13.2908 22.341C13.2958 22.3474 13.3009 22.3538 13.3059 22.3597C13.3377 22.3981 13.3695 22.4369 13.3997 22.4768C13.4124 22.4925 13.424 22.5088 13.4361 22.525C13.4588 22.5555 13.4815 22.586 13.5032 22.617C13.5163 22.6357 13.5289 22.6554 13.542 22.6746C13.5617 22.7037 13.5808 22.7327 13.5995 22.7622C13.6126 22.7829 13.6252 22.8035 13.6378 22.8242C13.6555 22.8533 13.6731 22.8828 13.6898 22.9123C13.7019 22.934 13.714 22.9556 13.7256 22.9773C13.7422 23.0068 13.7579 23.0373 13.7735 23.0673C13.7846 23.0895 13.7952 23.1111 13.8063 23.1333C13.8214 23.1647 13.8356 23.1962 13.8497 23.2277C13.8598 23.2494 13.8699 23.271 13.8789 23.2932C13.8936 23.3266 13.9067 23.3606 13.9203 23.3946C13.9284 23.4152 13.9364 23.4359 13.9445 23.4566C13.9591 23.4959 13.9723 23.5353 13.9854 23.5751C13.9909 23.5914 13.997 23.6071 14.002 23.6234C14.0197 23.6795 14.0363 23.7366 14.052 23.7936C14.054 23.8025 14.056 23.8118 14.058 23.8207C14.0706 23.8694 14.0822 23.9181 14.0928 23.9673C14.0974 23.987 14.1009 24.0072 14.1044 24.0274C14.1105 24.0584 14.117 24.0889 14.1226 24.1204H25.0189V5.83919C25.0189 5.49965 25.3014 5.22408 25.6494 5.22408H34.7657C34.7813 5.22408 34.8293 5.22408 34.859 5.16946C34.8888 5.11533 34.8625 5.07645 34.8535 5.06415L32.8807 2.17656C32.6895 1.89705 32.3702 1.73023 32.0257 1.73023H15.5612C15.4694 1.73023 15.3831 1.76517 15.318 1.82865L14.2749 2.84629C13.9718 3.14204 13.5687 3.30492 13.14 3.30492H2.28197C1.71904 3.30492 1.26103 3.75174 1.26103 4.30091V20.0852Z" fill="#101828"/>
        <path d="M17.6013 6.7981H21.5897C22.3953 6.7981 23.051 7.43732 23.051 8.22368V21.3886C23.051 21.7281 22.7686 22.0037 22.4205 22.0037H16.7711C16.423 22.0037 16.1406 21.7281 16.1406 21.3886V8.22368C16.1401 7.43732 16.7953 6.7981 17.6013 6.7981ZM17.4011 20.7735H21.7895V13.5397H17.4011V20.7735ZM17.4011 12.3095H21.7895V8.22368C21.7895 8.11592 21.6997 8.02832 21.5892 8.02832H17.6008C17.4904 8.02832 17.4006 8.11592 17.4006 8.22368L17.4011 12.3095Z" fill="#101828"/>
    </symbol>

    <symbol id="icon-alcove" viewBox="0 0 40 29" fill="none">
        <path d="M2.28197 2.07469H13.14C13.2318 2.07469 13.318 2.03975 13.3831 1.97627L14.4262 0.95863C14.7294 0.662883 15.1324 0.5 15.5612 0.5H32.0257C32.7924 0.5 33.5042 0.871529 33.9299 1.49402L35.9032 4.38162C36.1831 4.79153 36.2088 5.31561 35.9707 5.75012C35.7327 6.18464 35.2706 6.45431 34.7657 6.45431H26.2799V7.29086H30.626C31.7781 7.29086 32.8146 7.95863 33.2666 8.99251L35.8113 14.811L38.0404 15.681C39.2308 16.1456 40 17.2537 40 18.5046V23.893C40 24.6966 39.3296 25.3506 38.5059 25.3506H35.9122C35.6106 27.1344 34.0187 28.5 32.1059 28.5C30.1932 28.5 28.6013 27.1344 28.2996 25.3506H14.1216C13.8199 27.1344 12.228 28.5 10.3153 28.5C8.40252 28.5 6.81059 27.1344 6.50895 25.3506H1.32812C0.595715 25.3506 0 24.7695 0 24.0549V4.30091C0 3.07315 1.02345 2.07469 2.28197 2.07469ZM32.1059 27.2698C33.5385 27.2698 34.7037 26.133 34.7037 24.7355C34.7037 23.338 33.5385 22.2012 32.1059 22.2012C30.6734 22.2012 29.5082 23.338 29.5082 24.7355C29.5082 26.133 30.6734 27.2698 32.1059 27.2698ZM26.2799 24.1204H28.2986C28.3037 24.0894 28.3102 24.0594 28.3163 24.0289C28.3203 24.0082 28.3238 23.9875 28.3284 23.9669C28.3385 23.9186 28.3501 23.8709 28.3622 23.8232C28.3647 23.8133 28.3667 23.8035 28.3697 23.7936C28.3849 23.7361 28.4015 23.6795 28.4192 23.6234C28.4242 23.6071 28.4303 23.5909 28.4358 23.5742C28.4489 23.5348 28.4625 23.4954 28.4767 23.4566C28.4847 23.4359 28.4928 23.4152 28.5014 23.3946C28.5145 23.3606 28.5276 23.3266 28.5422 23.2932C28.5513 23.271 28.5614 23.2494 28.5715 23.2277C28.5856 23.1957 28.5997 23.1647 28.6149 23.1333C28.626 23.1111 28.6366 23.0895 28.6482 23.0673C28.6633 23.0373 28.6794 23.0068 28.6956 22.9773C28.7072 22.9556 28.7193 22.934 28.7314 22.9123C28.748 22.8828 28.7657 22.8533 28.7834 22.8242C28.796 22.8035 28.8086 22.7829 28.8212 22.7622C28.8404 22.7327 28.8595 22.7037 28.8792 22.6741C28.8923 22.6549 28.9049 22.6357 28.918 22.617C28.9397 22.586 28.9624 22.5555 28.9856 22.525C28.9972 22.5088 29.0088 22.4925 29.0209 22.4768C29.0522 22.4364 29.084 22.3976 29.1163 22.3587C29.1208 22.3528 29.1253 22.3469 29.1304 22.341C29.1677 22.2967 29.2066 22.2534 29.2459 22.2111C29.258 22.1978 29.2706 22.1855 29.2832 22.1727C29.311 22.1437 29.3387 22.1146 29.3675 22.0861C29.3836 22.0703 29.4003 22.0551 29.4164 22.0398C29.4421 22.0152 29.4683 21.9906 29.4951 21.9665C29.5127 21.9508 29.5309 21.935 29.5491 21.9193C29.5753 21.8966 29.6015 21.8745 29.6282 21.8523L29.6858 21.8066C29.7125 21.7854 29.7397 21.7647 29.767 21.7441C29.7866 21.7293 29.8068 21.7146 29.827 21.7003C29.8547 21.6801 29.883 21.6609 29.9117 21.6412C29.9319 21.6279 29.9521 21.6142 29.9723 21.6009C30.002 21.5812 30.0328 21.5625 30.0631 21.5438C30.0827 21.532 30.1024 21.5197 30.1226 21.5079C30.1559 21.4882 30.1902 21.4695 30.2245 21.4508C30.2421 21.441 30.2593 21.4311 30.2764 21.4218C30.3253 21.3962 30.3743 21.3716 30.4237 21.3479C30.4277 21.3465 30.4313 21.3445 30.4353 21.3425C30.4888 21.3174 30.5433 21.2933 30.5977 21.2707C30.6154 21.2633 30.6335 21.2569 30.6512 21.2495C30.6885 21.2348 30.7264 21.22 30.7647 21.2057C30.7864 21.1979 30.8086 21.191 30.8303 21.1831C30.8651 21.1713 30.8999 21.1595 30.9352 21.1486C30.9589 21.1413 30.9826 21.1344 31.0068 21.1275C31.0411 21.1176 31.0754 21.1078 31.1097 21.0989C31.1344 21.0925 31.1591 21.0862 31.1844 21.0802C31.2187 21.0719 31.253 21.0645 31.2878 21.0571C31.313 21.0517 31.3382 21.0463 31.3639 21.0414C31.3992 21.035 31.4346 21.0286 31.4704 21.0232C31.4956 21.0187 31.5203 21.0148 31.546 21.0114C31.5828 21.0059 31.6202 21.0015 31.658 20.9971C31.6817 20.9946 31.7059 20.9912 31.7301 20.9892C31.7715 20.9853 31.8134 20.9823 31.8552 20.9799C31.8759 20.9784 31.8961 20.9764 31.9168 20.9759C31.9798 20.9725 32.0424 20.971 32.1059 20.971C32.1695 20.971 32.232 20.9725 32.2951 20.9759C32.3158 20.9764 32.3359 20.9784 32.3566 20.9799C32.3985 20.9823 32.4404 20.9853 32.4817 20.9892C32.5059 20.9912 32.5301 20.9946 32.5538 20.9971C32.5917 21.0015 32.629 21.0059 32.6658 21.0114C32.6916 21.0148 32.7163 21.0187 32.7415 21.0232C32.7773 21.0286 32.8126 21.035 32.8479 21.0414C32.8736 21.0463 32.8989 21.0517 32.9241 21.0571C32.9589 21.0645 32.9932 21.0719 33.0275 21.0802C33.0527 21.0862 33.0774 21.0925 33.1021 21.0989C33.1364 21.1078 33.1707 21.1176 33.205 21.1275C33.2293 21.1344 33.253 21.1413 33.2767 21.1486C33.312 21.1595 33.3468 21.1713 33.3816 21.1831C33.4033 21.191 33.4255 21.1979 33.4472 21.2057C33.4855 21.22 33.5233 21.2348 33.5607 21.2495C33.5783 21.2569 33.5965 21.2633 33.6141 21.2707C33.6686 21.2933 33.7231 21.3174 33.7765 21.3425C33.7806 21.3445 33.7841 21.3465 33.7881 21.3479C33.8376 21.3716 33.8865 21.3962 33.9354 21.4218C33.9526 21.4311 33.9697 21.441 33.9874 21.4508C34.0217 21.4695 34.056 21.4882 34.0893 21.5079C34.1095 21.5197 34.1291 21.532 34.1488 21.5438C34.1791 21.5625 34.2098 21.5812 34.2396 21.6009C34.2598 21.6142 34.2799 21.6279 34.3001 21.6412C34.3289 21.6609 34.3571 21.6801 34.3849 21.7003C34.405 21.7146 34.4252 21.7293 34.4449 21.7441C34.4721 21.7647 34.4994 21.7854 34.5261 21.8066L34.5836 21.8523C34.6103 21.8745 34.6366 21.8966 34.6628 21.9193C34.681 21.935 34.6991 21.9508 34.7168 21.9665C34.7435 21.9906 34.7697 22.0152 34.7955 22.0398C34.8116 22.0551 34.8282 22.0703 34.8444 22.0861C34.8731 22.1146 34.9009 22.1437 34.9286 22.1727C34.9412 22.1855 34.9538 22.1978 34.966 22.2111C35.0053 22.2534 35.0441 22.2967 35.0815 22.341C35.0865 22.3469 35.091 22.3528 35.0956 22.3587C35.1279 22.3976 35.1596 22.4364 35.1909 22.4768C35.203 22.4925 35.2146 22.5088 35.2262 22.525C35.2494 22.5555 35.2721 22.586 35.2938 22.617C35.3069 22.6357 35.3195 22.6549 35.3327 22.6741C35.3523 22.7037 35.3715 22.7327 35.3907 22.7622C35.4033 22.7829 35.4159 22.8035 35.4285 22.8242C35.4462 22.8533 35.4638 22.8828 35.4805 22.9123C35.4926 22.934 35.5047 22.9556 35.5163 22.9773C35.5324 23.0068 35.5486 23.0373 35.5637 23.0673C35.5753 23.0895 35.5859 23.1111 35.597 23.1333C35.6121 23.1647 35.6262 23.1957 35.6404 23.2277C35.6504 23.2494 35.6605 23.271 35.6696 23.2932C35.6842 23.3266 35.6974 23.3606 35.7105 23.3946C35.719 23.4152 35.7271 23.4359 35.7352 23.4566C35.7493 23.4954 35.7629 23.5348 35.776 23.5742C35.7816 23.5909 35.7876 23.6071 35.7927 23.6234C35.8103 23.6795 35.827 23.7361 35.8421 23.7936C35.8451 23.8035 35.8472 23.8133 35.8497 23.8232C35.8618 23.8709 35.8734 23.9186 35.8835 23.9669C35.888 23.9875 35.8916 24.0082 35.8956 24.0289C35.9016 24.0594 35.9082 24.0894 35.9132 24.1204H38.5059C38.6346 24.1204 38.739 24.0185 38.739 23.893V21.3155H37.7554V20.0852H38.739V18.5046C38.739 17.7596 38.281 17.0997 37.5723 16.8232L35.2126 15.9025H26.2799V24.1204ZM26.2799 14.6722H34.3798L32.1069 9.47526C31.8532 8.89557 31.2721 8.52109 30.626 8.52109H26.2799V14.6722ZM10.3153 27.2698C11.7478 27.2698 12.913 26.133 12.913 24.7355C12.913 23.338 11.7478 22.2012 10.3153 22.2012C10.2704 22.2012 10.226 22.2022 10.1816 22.2047C8.98815 22.2637 8.00454 23.1131 7.77049 24.2252C7.76192 24.2665 7.75385 24.3084 7.74729 24.3502C7.73418 24.4338 7.7256 24.519 7.72106 24.6051C7.71854 24.6484 7.71753 24.6917 7.71753 24.7355C7.71753 26.133 8.88272 27.2698 10.3153 27.2698ZM1.26103 20.0852H2.24464V21.3155H1.26103V24.0549C1.26103 24.0909 1.2913 24.1204 1.32812 24.1204H6.50795C6.51299 24.0899 6.51955 24.0599 6.5256 24.0298C6.52963 24.0087 6.53316 23.9875 6.5377 23.9664C6.54779 23.9191 6.55889 23.8724 6.571 23.8261C6.57402 23.8153 6.57604 23.804 6.57907 23.7931C6.5942 23.7361 6.61084 23.68 6.6285 23.6239C6.63404 23.6066 6.6401 23.5894 6.64565 23.5727C6.65876 23.5338 6.67188 23.4949 6.686 23.457C6.69407 23.4354 6.70265 23.4147 6.71072 23.3936C6.72383 23.3601 6.73745 23.3266 6.75107 23.2937C6.76066 23.271 6.77074 23.2489 6.78083 23.2268C6.79496 23.1957 6.80908 23.1647 6.82421 23.1337C6.8348 23.1111 6.84641 23.089 6.8575 23.0668C6.87263 23.0368 6.88827 23.0073 6.90442 22.9773C6.91652 22.9556 6.92862 22.934 6.94073 22.9123C6.95788 22.8828 6.97503 22.8537 6.99269 22.8247C7.00529 22.8036 7.01791 22.7829 7.03102 22.7622C7.04969 22.7327 7.06886 22.7037 7.08853 22.6751C7.10114 22.6554 7.11425 22.6357 7.12737 22.617C7.14906 22.586 7.17175 22.556 7.19395 22.526C7.20605 22.5093 7.21816 22.4925 7.23077 22.4763C7.26103 22.4374 7.29181 22.3991 7.32358 22.3612C7.32913 22.3543 7.33418 22.3474 7.33972 22.341C7.37756 22.2967 7.41589 22.2534 7.45523 22.2111C7.46784 22.1978 7.48045 22.185 7.49306 22.1717C7.52081 22.1427 7.54855 22.1141 7.5768 22.0861C7.59294 22.0703 7.60958 22.0551 7.62623 22.0393C7.65195 22.0147 7.67768 21.9906 7.70441 21.9665C7.72207 21.9508 7.74073 21.935 7.75889 21.9188C7.78461 21.8966 7.81084 21.8745 7.83758 21.8528C7.85675 21.8371 7.87592 21.8213 7.89559 21.8061C7.92182 21.7854 7.94905 21.7647 7.97629 21.7441C7.99596 21.7293 8.01614 21.7146 8.03632 21.7003C8.06406 21.6801 8.09231 21.6609 8.12055 21.6417C8.14124 21.6279 8.16141 21.6142 8.18159 21.6009C8.21135 21.5812 8.24161 21.5625 8.27188 21.5443C8.29206 21.532 8.31173 21.5197 8.3319 21.5079C8.36519 21.4882 8.39899 21.4695 8.43329 21.4508C8.45095 21.441 8.4681 21.4311 8.48625 21.4218C8.53417 21.3962 8.5826 21.3721 8.63203 21.3489C8.63607 21.347 8.6401 21.3445 8.64464 21.3425C8.69811 21.3174 8.75258 21.2933 8.80706 21.2707C8.82471 21.2633 8.84287 21.2569 8.86053 21.2495C8.89836 21.2348 8.93569 21.22 8.97402 21.2057C8.99571 21.1979 9.0179 21.191 9.0401 21.1831C9.0744 21.1713 9.10921 21.1595 9.14451 21.1486C9.16822 21.1413 9.19243 21.1344 9.21614 21.1275C9.25044 21.1176 9.28474 21.1078 9.31904 21.0989C9.34376 21.0925 9.36847 21.0862 9.39369 21.0802C9.42799 21.0719 9.4623 21.0645 9.4971 21.0571C9.52232 21.0517 9.54754 21.0463 9.57327 21.0414C9.60857 21.035 9.64388 21.0286 9.6797 21.0232C9.70492 21.0187 9.72964 21.0148 9.75536 21.0114C9.79218 21.0059 9.82951 21.0015 9.86734 20.9971C9.89105 20.9946 9.91526 20.9912 9.93947 20.9892C9.98083 20.9853 10.0227 20.9823 10.0646 20.9799C10.0852 20.9784 10.1054 20.9764 10.1261 20.9759C10.1892 20.9725 10.2517 20.971 10.3153 20.971C10.3788 20.971 10.4414 20.9725 10.5044 20.9759C10.5251 20.9764 10.5453 20.9784 10.566 20.9799C10.6078 20.9823 10.6497 20.9853 10.691 20.9892C10.7153 20.9912 10.7395 20.9946 10.7632 20.9971C10.801 21.0015 10.8383 21.0059 10.8752 21.0114C10.9009 21.0148 10.9256 21.0187 10.9508 21.0232C10.9866 21.0286 11.0219 21.035 11.0573 21.0414C11.083 21.0463 11.1082 21.0517 11.1334 21.0571C11.1682 21.0645 11.2025 21.0719 11.2368 21.0802C11.262 21.0862 11.2868 21.0925 11.3115 21.0989C11.3458 21.1078 11.3801 21.1176 11.4144 21.1275C11.4381 21.1344 11.4623 21.1413 11.486 21.1486C11.5213 21.1595 11.5561 21.1713 11.5904 21.1831C11.6126 21.191 11.6348 21.1979 11.6565 21.2057C11.6948 21.22 11.7322 21.2348 11.77 21.2495C11.7876 21.2569 11.8058 21.2633 11.8235 21.2707C11.8779 21.2933 11.9324 21.3174 11.9859 21.3425C11.9904 21.3445 11.9945 21.3465 11.9985 21.3489C12.0479 21.3721 12.0963 21.3962 12.1443 21.4218C12.1624 21.4311 12.1796 21.441 12.1972 21.4508C12.231 21.4695 12.2653 21.4882 12.2986 21.5079C12.3188 21.5197 12.3385 21.532 12.3586 21.5443C12.3889 21.5625 12.4192 21.5812 12.4489 21.6009C12.4691 21.6142 12.4893 21.6279 12.51 21.6417C12.5382 21.6609 12.5665 21.6801 12.5942 21.7003C12.6144 21.7146 12.6346 21.7293 12.6542 21.7441C12.6815 21.7647 12.7087 21.7854 12.7349 21.8061C12.7546 21.8213 12.7738 21.8371 12.7929 21.8528C12.8197 21.8745 12.8459 21.8966 12.8716 21.9193C12.8898 21.935 12.9084 21.9508 12.9261 21.9665C12.9528 21.9906 12.9786 22.0152 13.0048 22.0398C13.0209 22.0551 13.0376 22.0703 13.0537 22.0861C13.082 22.1141 13.1102 22.1432 13.138 22.1722C13.1501 22.185 13.1632 22.1978 13.1753 22.2111C13.2146 22.2534 13.253 22.2967 13.2908 22.341C13.2958 22.3474 13.3009 22.3538 13.3059 22.3597C13.3377 22.3981 13.3695 22.4369 13.3997 22.4768C13.4124 22.4925 13.424 22.5088 13.4361 22.525C13.4588 22.5555 13.4815 22.586 13.5032 22.617C13.5163 22.6357 13.5289 22.6554 13.542 22.6746C13.5617 22.7037 13.5808 22.7327 13.5995 22.7622C13.6126 22.7829 13.6252 22.8035 13.6378 22.8242C13.6555 22.8533 13.6731 22.8828 13.6898 22.9123C13.7019 22.934 13.714 22.9556 13.7256 22.9773C13.7422 23.0068 13.7579 23.0373 13.7735 23.0673C13.7846 23.0895 13.7952 23.1111 13.8063 23.1333C13.8214 23.1647 13.8356 23.1962 13.8497 23.2277C13.8598 23.2494 13.8699 23.271 13.8789 23.2932C13.8936 23.3266 13.9067 23.3606 13.9203 23.3946C13.9284 23.4152 13.9364 23.4359 13.9445 23.4566C13.9591 23.4959 13.9723 23.5353 13.9854 23.5751C13.9909 23.5914 13.997 23.6071 14.002 23.6234C14.0197 23.6795 14.0363 23.7366 14.052 23.7936C14.054 23.8025 14.056 23.8118 14.058 23.8207C14.0706 23.8694 14.0822 23.9181 14.0928 23.9673C14.0974 23.987 14.1009 24.0072 14.1044 24.0274C14.1105 24.0584 14.117 24.0889 14.1226 24.1204H25.0189V5.83919C25.0189 5.49965 25.3014 5.22408 25.6494 5.22408H34.7657C34.7813 5.22408 34.8293 5.22408 34.859 5.16946C34.8888 5.11533 34.8625 5.07645 34.8535 5.06415L32.8807 2.17656C32.6895 1.89705 32.3702 1.73023 32.0257 1.73023H15.5612C15.4694 1.73023 15.3831 1.76517 15.318 1.82865L14.2749 2.84629C13.9718 3.14204 13.5687 3.30492 13.14 3.30492H2.28197C1.71904 3.30492 1.26103 3.75174 1.26103 4.30091V20.0852Z" fill="#101828"/>
        <path d="M17.6013 6.7981H21.5897C22.3953 6.7981 23.051 7.43732 23.051 8.22368V21.3886C23.051 21.7281 22.7686 22.0037 22.4205 22.0037H16.7711C16.423 22.0037 16.1406 21.7281 16.1406 21.3886V8.22368C16.1401 7.43732 16.7953 6.7981 17.6013 6.7981ZM17.4011 20.7735H21.7895V13.5397H17.4011V20.7735ZM17.4011 12.3095H21.7895V8.22368C21.7895 8.11592 21.6997 8.02832 21.5892 8.02832H17.6008C17.4904 8.02832 17.4006 8.11592 17.4006 8.22368V12.3095H17.4011ZM4.84371 6.7981H12.5562C13.4475 6.7981 14.1728 7.50572 14.1728 8.37525V11.9631C14.1728 12.8326 13.4475 13.5402 12.5562 13.5402H4.8432C3.9519 13.5402 3.22656 12.8326 3.22656 11.9631V8.37525C3.22706 7.50572 3.95241 6.7981 4.84371 6.7981ZM4.4881 11.9626C4.4881 12.1535 4.64749 12.3095 4.84371 12.3095H12.5562C12.7524 12.3095 12.9118 12.154 12.9118 11.9626V8.37476C12.9118 8.18382 12.7524 8.02783 12.5562 8.02783H4.8432C4.64699 8.02783 4.48759 8.18333 4.48759 8.37476V11.9626H4.4881Z" fill="#101828"/>
    </symbol>
</svg>
